<?xml version="1.0" encoding="UTF-8" standalone="no"?>
<svg
   width="13664.947"
   height="18307.199"
   viewBox="0 0 13664.947 18307.199"
   version="1.1"
   xml:space="preserve"
   style="clip-rule:evenodd;fill-rule:evenodd;stroke-linejoin:round;stroke-miterlimit:2"
   id="svg38"
   sodipodi:docname="logo.svg"
   inkscape:version="1.1.1 (3bf5ae0d25, 2021-09-20)"
   xmlns:inkscape="http://www.inkscape.org/namespaces/inkscape"
   xmlns:sodipodi="http://sodipodi.sourceforge.net/DTD/sodipodi-0.dtd"
   xmlns="http://www.w3.org/2000/svg"
   xmlns:svg="http://www.w3.org/2000/svg"><defs
   id="defs42" /><sodipodi:namedview
   id="namedview40"
   pagecolor="#ffffff"
   bordercolor="#666666"
   borderopacity="1.0"
   inkscape:pageshadow="2"
   inkscape:pageopacity="0.0"
   inkscape:pagecheckerboard="0"
   showgrid="false"
   inkscape:zoom="0.03962778"
   inkscape:cx="-1728.5853"
   inkscape:cy="10762.652"
   inkscape:window-width="1920"
   inkscape:window-height="1137"
   inkscape:window-x="1912"
   inkscape:window-y="-8"
   inkscape:window-maximized="1"
   inkscape:current-layer="g36"
   fit-margin-top="0"
   fit-margin-left="0"
   fit-margin-right="0"
   fit-margin-bottom="0" />
    <g
   transform="matrix(5.55556,0,0,5.55556,-3318.291,-240.20401)"
   id="g36">
        <g
   transform="matrix(1.15474,0,0,1.15474,-1059.76,-450.253)"
   id="g4">
            <path
   d="m 1435,2197 c 2,-2.88 4.84,-5.48 6,-8.68 15.64,-44.6 30.94,-89.32 46.56,-133.93 4.69,-13.37 6.3,-27.18 7.36,-41.14 0.4,-5.21 0.72,-10.43 1.14,-16.63 2.33,1.14 3.89,1.59 5.08,2.52 11.55,9.07 19.28,20.77 19.74,35.53 0.32,14.97 -0.24,29.94 -1.68,44.84 -1.39,15.83 -1.29,31.23 5.18,46.09 11.13,25.61 33.87,42.07 65.41,43.08 19.86,0.65 37.56,-14.74 43.59,-36.18 3.17,-11.29 2.56,-22.31 -1,-33.43 -7.62,-23.93 -20.93,-44.09 -41.39,-58.56 -47.73,-33.78 -68.62,-80.81 -69.52,-137.88 -0.66,-41.57 10.85,-79.38 35.55,-113.23 11.52,-15.79 27.12,-25.25 44.5,-32.57 1.73,-0.72 5,-0.52 6,0.63 1,1.15 1.34,4.43 0.63,6.26 -1.92,4.94 -4.76,9.52 -6.82,14.42 -3.74,8.87 -8,17.64 -10.56,26.86 -5,18 -2.74,35.89 4.8,52.71 6.8,15.19 14.37,30.03 22.68,44.46 11,19.16 27.48,31.31 49.86,34.71 25.29,3.85 48.21,-5.49 59.34,-27.53 18.69,-37 24.68,-75.74 10.1,-115.92 -5.91,-16.29 -16.13,-29.72 -28.06,-42.07 -20.37,-21.06 -36.83,-44.74 -47,-72.44 -13.54,-37.05 -12.73,-74.43 -1.83,-111.88 9.31,-32 24.56,-61.18 43.72,-88.24 13.66,-19.3 28.19,-38 42.72,-56.66 13.47,-17.32 32.58,-24.67 53.37,-28.55 7.39,-1.38 14.93,-3.95 22.54,1.89 -2,1.43 -3.61,2.86 -5.46,4 -30.9,18.21 -42.49,46.56 -41.58,80.88 0.69,26 10.62,48.2 32.31,63.48 23,16.25 48.27,18.25 74.07,7.37 24.52,-10.35 38.83,-35.78 35.58,-62.32 -3.58,-29.16 -11.76,-57.3 -19.59,-85.53 -6.31,-22.75 -12.78,-45.53 -17.47,-68.65 -9.42,-46.45 -0.89,-89.61 28.32,-127.49 14.22,-18.44 30.07,-35.63 45.12,-53.44 7.31,-8.66 14.86,-17.14 21.64,-26.2 21.26,-28.43 24.81,-58.81 9.14,-91.07 -1.65,-3.4 -2.66,-7.11 -4.1,-11 8.63,-3.61 16.1,-2.72 23.45,-0.46 29.79,9.15 47.73,39.56 40.92,70.81 -2.74,12.61 -7.37,24.87 -11.78,37.06 -7.35,20.35 -15.72,40.34 -22.73,60.8 -11.68,34.13 0.9,68.55 31.28,87.8 23.81,15.09 52.18,11.71 71,-8.44 12.55,-13.43 14.37,-29.63 11.5,-46.7 -4.17,-24.81 -13.34,-48 -23.74,-70.81 -5.53,-12.11 -11.51,-24 -16.61,-36.33 -33.41,-80.52 13.24,-173.19 86.16,-200 13.1,-4.81 26.29,-6.94 41,-4.89 -0.92,2.16 -1.46,4.27 -2.6,6 -4.6,6.94 -9.42,13.74 -14.11,20.63 -14.5,21.35 -23.85,44.64 -25.36,70.57 -2.41,41.58 12.16,73.92 60.59,93.9 17.95,7.41 36.78,9.25 55.83,4.23 29.66,-7.82 48.15,-36.16 42.81,-66.45 -1.76,-9.14 -4.46,-18.08 -8.06,-26.67 -10.6,-25.923 -24.04,-50.588 -40.09,-73.54 -25.12,-36.32 -46.91,-74.39 -59.81,-116.94 -6.1,-20.09 -11.43,-40.42 -11.1,-61.66 0.38,-25.19 6.81,-48.76 20.22,-70.16 25.65,-40.927 51.43,-81.78 77.32,-122.56 1.16,-1.84 2.54,-3.54 4.65,-6.47 0.67,10.75 0.52,20.05 1.95,29.11 3.37,21.34 7,42.68 11.42,63.83 16,76.55 33,152.9 48.34,229.59 7.17,35.86 11.45,72.3 16.95,108.49 2.65,17.44 5,34.93 7.68,52.37 0.54,3.5 1.85,6.88 2.71,10 21.43,2.69 40.65,-9.14 45.67,-29.59 4.27,-17.38 8,-35.29 8.66,-53.08 1.57,-44.61 1.45,-89.27 1.61,-133.92 0.21,-61.66 0.21,-123.327 0,-185 0,-19 -0.76,-38 -1,-57 -0.01,-4.323 0.23,-8.643 0.7,-12.94 1.62,-16.84 10.81,-27.92 25.85,-35.21 12.35,-5.812 24.34,-12.371 35.89,-19.64 11.25,-7.186 21.88,-15.294 31.78,-24.24 21.35,-19.45 32.61,-44.2 35.25,-72.92 0.18,-2 0.32,-4 0.51,-6 0.21,-0.599 0.48,-1.175 0.81,-1.72 7.58,8.94 10.48,19.29 11.77,30 1.78,14.86 -0.39,29.19 -7.42,42.67 -13.26,25.44 -27.81,50.07 -45.47,72.76 -11.3,14.51 -21.3,29.73 -27.67,47.2 -8.26,22.66 -5.38,43.85 7.43,63.94 9.06,14.21 21,25.8 33.88,36.47 37.8,31.189 73.8,64.489 107.84,99.74 7.8,8.11 15.3,16.87 21.13,26.44 12.85,21.07 12.61,42.94 0.56,64.53 -6.41,11.48 -15.37,20.82 -24.94,29.74 -14.37,13.4 -28.84,26.75 -42.46,40.9 -18.37,19.08 -14,36.22 10.8,45.88 34.6,13.46 68.23,-2.12 79.9,-37.48 3.43,-10.4 5.39,-21.28 8,-31.93 4.72,-19.11 12.17,-36.69 27.72,-49.76 2.42,-2 4.91,-4 9.15,-7.38 -1.81,7.47 -3.18,12.53 -4.25,17.64 -3.29,15.75 -1.37,31.25 3.35,46.34 4.06,13 8.74,25.86 13.77,38.53 8.65,21.4 11.96,44.58 9.66,67.54 -2.68,27.16 -6.33,54.27 -7.95,81.49 -1.87,31.25 -1.65,62.62 -2.92,93.91 -1.18,29.3 15.42,44.07 45.44,46.87 16.19,1.51 28.33,-6 36.56,-19.71 8,-13.34 7,-26.7 -1,-39.66 -2.7,-4.19 -5.67,-8.19 -8.89,-12 -18.16,-22.48 -30.5,-47.47 -34.22,-76.48 -6.91,-53.92 21,-91.27 59.9,-107.31 15.76,-6.5 31.79,-6.55 47.84,-1 1.73,0.6 4.56,2 4.51,2.94 -0.19,2.17 -1.22,4.19 -2.86,5.62 -4,3 -8.16,5.76 -12.47,8.29 -23.52,14.46 -32.94,39.24 -24.65,65.57 4.65,14.79 13,27.09 26.38,35.25 18.47,11.29 37.24,22.07 55.89,33 1.43,0.84 3,1.53 4.43,2.3 18.59,9.8 22.77,18.85 17.18,39.12 -7.69,27.94 -9.45,56 0.09,83.62 4.52,13.1 10.9,25.74 17.88,37.75 10.83,18.64 17.38,38 16.06,59.79 -0.67,11.32 -3.29,22.44 -7.74,32.87 -9.06,21.37 -21.83,40.39 -37.06,57.82 -1,1.17 -2.27,2.17 -4.66,4.43 -0.6,-5.4 -1.05,-9.24 -1.44,-13.09 -1.86,-18.54 -3.51,-37.11 -5.65,-55.62 -1.42,-12.35 -5.74,-23.88 -11.21,-35 -10.57,-21.56 -20.19,-43.51 -24.14,-67.44 -0.86,-5.25 -1.21,-10.58 -1.83,-15.86 -0.86,-7.21 -1.7,-8.55 -8.71,-13.87 -1.35,1.36 -2.59,2.82 -3.72,4.36 -17.66,27.7 -32.24,56.78 -38.6,89.33 -4.06,20.28 -5.47,41.01 -4.18,61.65 2.82,42.53 6.06,85 9.08,127.53 0.31,4.32 0.38,8.66 0.44,13 0.23,17 -7,30.24 -20.52,40.12 -10.48,7.67 -21,15.31 -32,22.29 -5.63,3.52 -11.72,6.24 -18.09,8.09 -15.57,4.59 -31.53,4.55 -47.52,2.25 -19.64,-2.83 -34.66,-17.64 -32.15,-43.07 1.59,-16.12 6.47,-31.9 9.76,-47.86 6.53,-31.61 13.08,-63.21 19.44,-94.85 5.06,-25.22 3.17,-50.39 -1.29,-75.46 -1.34,-7.53 -3.21,-15 -4.56,-22.5 -4.22,-23.42 -17.36,-40.74 -36.82,-53.59 -6.09,-4 -12.75,-7.17 -19.14,-10.75 -9,-5 -10.6,-9.19 -6.84,-18.79 2.91,-7.44 6.21,-14.72 9,-22.19 7.83,-20.71 4.47,-39.57 -11.18,-55.24 -10.39,-10.31 -21.41,-19.95 -33,-28.88 -11.82,-9.19 -24.57,-17.17 -36.87,-25.74 -3.64,-2.35 -7.1,-4.94 -10.38,-7.77 -7.91,-7.37 -11.18,-16.32 -8.33,-27.12 1.53,-5.79 3.13,-11.59 4.21,-17.47 4.61,-25.14 -7.9,-43.2 -33.06,-47.88 -20.22,-3.76 -39.77,0.42 -59.16,5.49 -6.13,1.53 -12.09,3.69 -17.79,6.44 -14.78,7.38 -20.88,20.47 -17.22,36.51 1.42,5.47 3.19,10.85 5.3,16.09 1.14,2.77 2.42,5.48 3.84,8.12 8.34,17 5.67,24.89 -11.18,34.05 -10.82,5.89 -22,11.4 -32.08,18.34 -9.83,6.76 -19,14.41 -27.41,22.87 -10,10 -14.34,23.33 -15.23,37.19 -0.74,11.58 0.27,23.28 0.65,34.92 0.2,6.32 0.7,12.62 1.11,18.93 0.55,8.24 -3.12,14.23 -10.17,18 -6.45,3.45 -13.17,6.39 -19.77,9.56 -27.28,13.12 -49,32.13 -61.83,60 -15.15,32.93 -13.63,66.15 0.94,98.68 5.9,13.03 13.04,25.46 21.34,37.11 21.75,30.74 31.66,65 32.34,102.18 0.24,13 -2.72,16.32 -15.6,18.86 -12.88,2.54 -25.64,4.2 -38.28,7.1 -40.14,9.18 -69.63,32.15 -87.72,69.32 -11.07,22.75 -21.93,45.61 -32.91,68.41 -1.45,3.38 -3.67,6.39 -6.48,8.77 -0.85,-3.25 -2.42,-6.49 -2.43,-9.75 -0.19,-46.32 -1.25,-92.68 0.1,-139 1.45,-49.75 8.64,-98.82 25.92,-145.93 12.35,-33.66 29.81,-64.67 49.1,-94.72 10.07,-15.71 20.46,-31.21 30.54,-46.91 17.24,-26.83 30.88,-55.25 36.8,-86.84 6.48,-34.59 4.06,-68.33 -11.18,-100.51 -2,-4.14 -2.9,-10.74 -9.67,-9.62 -6.31,1 -4.9,7.14 -5.48,11.46 -1.24,9.22 -1.86,18.53 -3.08,27.76 -3,22.61 -14.62,39.57 -34,51.52 -25.5,15.81 -49.7,33.63 -72.36,53.3 -26.95,23.27 -48,51 -61.17,84.06 -19.48,48.89 -36.79,98.54 -48,150.11 -9.38,43.21 -13.5,86.85 -10.09,131.05 4,51 15.61,100.56 29.94,149.54 6,20.44 12.15,40.82 17.9,61.33 1.82,6.57 2.5,13.4 2,20.2 -1.9,-2.94 -4,-5.77 -5.67,-8.83 -24.41,-44.62 -42.66,-91.71 -55.84,-140.77 -13.32,-49.62 -19.42,-100.91 -18.09,-152.27 0.74,-30.59 7.54,-60 17,-88.95 15.19,-46.58 25.83,-94.34 37.21,-141.92 3.64,-15.23 -2.15,-27.12 -9.9,-40.34 -8.22,4.81 -15.36,11.25 -21,18.92 -12.16,16.28 -23.89,32.89 -36.26,49 -9.94,12.94 -20.23,25.65 -30.91,38 -30.37,35 -50.86,74.77 -58,120.83 -1.76,11.18 -2.81,22.46 -3.16,33.77 -1.33,44.77 2.06,89.13 11.56,133 17.36,80.22 53.6,150.79 107.2,212.68 6.94,8 13.91,16 19.78,25.53 -2.15,-1.1 -4.42,-2 -6.46,-3.32 -75,-47.51 -121.85,-115.71 -147,-200 -11.65,-39 -15.84,-78.89 -13.84,-119.47 0.38,-7.64 1.69,-15.23 2.18,-22.87 0.54,-8.5 -2.87,-10.9 -10.8,-8.38 -13,4.16 -23.47,11.59 -32.51,22.08 -30.34,35.19 -45.63,75.72 -43.22,122.09 1.64,31.69 8.39,62.71 18.45,92.8 5.9,17.64 12.93,35 20.47,52 21.77,49.12 56.81,86.52 102.67,114 11.14,6.68 22.48,13 33.65,19.65 7.42,4.21 14.41,9.14 20.86,14.72 -2.64,-0.19 -5.32,-0.16 -7.92,-0.59 -48.08,-8 -88.92,-30.57 -126,-61.37 -41.42,-34.43 -65.53,-79 -78,-130.55 -1.79,-7.41 -3.55,-14.83 -5.35,-22.24 -0.07,-0.28 -0.43,-0.49 -1.46,-1.6 -1.87,1 -4.24,1.92 -6.09,3.43 -17,13.85 -24.75,32.53 -28.24,53.52 -5,30 -1.43,59.26 8.53,87.59 22,62.71 61.67,111.46 118.75,145.63 24.07,14.41 50.08,23.1 78.49,23.67 4.88,0.1 9.72,1.5 16.34,2.59 -2.66,2.56 -3.88,4.69 -5.62,5.26 -7.84,2.59 -15.7,5.8 -23.79,6.82 -22.89,2.88 -45.14,-1.41 -66.92,-8.27 -22.25,-7.03 -43.7,-16.37 -64,-27.86 -25.82,-14.57 -45.27,-35.16 -56.67,-62.53 -6.77,-16.23 -11.83,-33.18 -17.62,-49.82 -0.63,-1.89 -1.17,-3.82 -1.6,-5.77 -1.16,-5.05 -4.43,-6 -9,-5.08 -12.81,2.61 -22.4,9.82 -29.67,20.41 -7.4,10.79 -10.25,23.06 -11.14,35.83 -6,85.66 58.25,165.73 129.11,187.06 14.79,4.45 29.94,6.23 45.25,7.23 12.51,0.81 25,1.67 38.17,4.24 -2.69,1.49 -5.23,3.56 -8.11,4.35 -12.16,3.35 -24.26,7.4 -36.68,9.21 -26.41,4.01 -53.32,3.2 -79.44,-2.4 -23.7,-5.17 -43.54,-17 -58.59,-35.69 -11.25,-14 -20.75,-29.33 -30.9,-44.16 -3.39,-4.94 -6.12,-10.34 -9.65,-15.17 -4.07,-5.57 -9.12,-5 -12.3,1 -7.53,14.32 -12.58,28.95 -11.15,45.8 3.37,39.44 14.07,75.9 40,106.72 17.54,21.14 40.05,37.61 65.51,47.92 37,15 72.35,10.31 106.15,-9.9 4.53,-2.71 9,-5.42 14.91,-7 -1.05,2.13 -2.27,4.18 -3.62,6.14 -18.55,23.26 -43.44,35.8 -72,41.58 -13.34,2.7 -26.79,4.61 -40.65,3.18 -24.31,-2.49 -44.49,-13 -61.71,-29.81 -8.33,-8.15 -16.36,-16.62 -24.73,-24.74 -6.49,-6.3 -14.31,-10.52 -23,-14.16 -6,8.86 -10.42,17.25 -10.86,27.85 -1.12,26.73 3.14,52.25 19,74.08 26.39,36.29 60.85,61.41 105.89,69.46 23,4.1 45.78,2.71 67.8,-6 12.33,-4.88 24.7,-9.66 39,-15.26 -1.67,5.66 -2.37,9.85 -4.11,13.56 -4.32,9.2 -11,16.69 -18.93,22.92 -35.68,27.88 -75.19,33.44 -117.86,19.91 -18,-5.71 -34.07,-15 -49.1,-26.26 -7.66,-5.74 -15.48,-11.26 -24.65,-17.91 -1.25,4.71 -2.28,7.7 -2.82,10.79 -5.78,33.33 3.27,62.67 24.48,88.49 19.83,24.13 43.49,43.19 73.74,52.74 30,9.48 59.94,6.88 89.39,-2.63 13.5,-4.37 26.57,-10 40.83,-15.5 -16,25.19 -37.09,42.37 -64.72,51.39 -22.6,7.37 -45.9,7.5 -69.26,6.48 -10.64,-0.47 -21.24,-1.64 -31.86,-2.53 -3,-0.25 -6.08,-0.68 -7.89,2.64 -2,3.65 0,6.1 2.25,8.84 28.79,35.4 67,53.9 111.06,61.59 11.4,2 23.2,2.39 34.81,2.36 23.51,0 41.53,-10.53 53.77,-30.68 24.94,-41 55.84,-77.23 90.71,-109.95 30.36,-28.5 61.74,-55.92 92.66,-83.83 4.45,-4 9.12,-7.83 13.18,-12.22 6.59,-7.14 7,-11.43 2,-19.75 -2.71,-4.57 -6,-8.82 -9,-13.18 -12.42,-17.74 -25,-35.36 -37.19,-53.27 -2.72,-4.15 -4.67,-8.75 -5.76,-13.59 -3.94,-16.88 20.79,-34.69 36.29,-28.5 3.41,1.32 6.71,2.93 9.84,4.83 27.18,16.85 54.25,33.87 81.46,50.67 5.36,3.35 10.98,6.24 16.81,8.66 9,3.65 18.64,4.09 27.28,-0.2 16.33,-8.09 32.15,-17.21 47.59,-25.58 0.63,-5.77 -2.37,-7.65 -5.75,-9.44 -41.58,-22.17 -57.6,-58.66 -55.67,-103.66 0.91,-21.15 5.31,-42.22 8.91,-63.19 8.79,-51.17 18,-102.27 27.11,-153.39 3.33,-18.67 7,-37.28 10.37,-56 5.55,-31 -0.62,-59.56 -18.24,-85.64 -2.42,-3.59 -5,-7.06 -7.67,-10.49 -38.09,-49.21 -47.36,-103.85 -30.25,-163.19 9.19,-31.84 25.43,-60 46.69,-85.3 20.27,-24.09 47,-31.69 77.22,-28.47 19.52,2.07 38.9,5.36 58.36,8 2.55,0.35 5.16,0.36 8.49,0.57 0,-2.8 0.31,-5 0,-7.15 -4.59,-27.24 -9.35,-54.45 -13.91,-81.7 -2.36,-14.09 -3.75,-28.38 -6.74,-42.33 -5.21,-24.38 -14.43,-47.67 -30,-67 -30.45,-37.72 -13.34,-88 18.42,-111.08 15.07,-10.92 31.21,-20.37 47,-30.26 5.92,-3.7 12.33,-6.6 18.37,-10.13 14.43,-8.43 16.12,-13.51 10.44,-29.54 -3.11,-8.77 -6.63,-17.46 -8.93,-26.44 -4.32,-16.91 -1.38,-32.82 10.89,-45.53 10.14,-10.5 21.47,-19.88 32.6,-29.38 7.85,-6.69 16.3,-12.68 24.36,-19.13 2.59,-2.09 4.99,-4.42 7.15,-6.95 11,-12.81 12,-23.92 3.5,-38.42 -2.53,-4.3 -5.57,-8.33 -7.81,-12.77 -5.81,-11.52 -3.12,-18.88 8.38,-24.31 9.06,-4.28 18.57,-5.11 28.31,-3.66 8.1,1.2 12.54,6.08 12.13,14.34 -0.37,5.62 -1.52,11.16 -3.4,16.47 -8.26,24.34 -5.63,33.14 15.58,47.24 11.65,7.74 23.71,14.86 35.56,22.31 4.51,2.84 9.1,5.59 13.36,8.77 25.68,19.21 33.29,46.47 21.17,76.16 -2.89,7.08 -6.67,13.79 -9.72,20.81 -6,13.83 -3.78,19.81 9.61,26.57 3.56,1.8 7.26,3.33 10.9,5 36.22,16.23 58.06,43.69 64.14,83.06 1.95,12.61 0.23,25.22 -2.25,37.72 -9.33,47 -18.83,94 -27.75,141.06 -9.09,48 19.81,89.81 67.66,98.89 14.57,2.76 29.11,3.14 43.66,0 12.5,-2.48 24.06,-8.43 33.35,-17.16 49.77,-47.36 98.21,-96 140.67,-150.19 21.3,-26.93 40.55,-55.42 57.57,-85.24 4.49,-7.79 8.54,-15.83 12.11,-24.08 14,-33.1 11.33,-64.72 -8,-95.31 -7.01,-10.9 -12.74,-22.58 -17.07,-34.8 -10.49,-30.53 -8.55,-61.68 -1.33,-92.64 6.07,-26 15.7,-50.87 26.7,-75.15 2,-4.31 5.6,-8.25 9.36,-11.26 4.6,-3.69 10.14,-6.22 15.43,-9.34 13.12,14.39 15.09,30.84 11.83,48.7 -2.28,12.44 -4.15,25 -6.1,37.44 -2.32,14.8 2,25.94 15.94,33.3 8.81,4.66 17,10.49 25.59,15.59 18.49,11 36.43,10.55 54.23,-2.13 6.73,-4.79 14.39,-8.3 21.76,-12.15 2.92,-1.6 6.06,-2.77 9.31,-3.47 5.15,-1 11,-2.67 15.11,1.81 4.48,4.87 3.72,11.27 2.07,17.1 -0.87,3.1 -3,5.9 -4.91,8.62 -8.91,12.87 -18.53,25.3 -26.7,38.62 -6.22,10.12 -12,20.9 -15.67,32.13 -34.16,103.54 -73.69,204.86 -123.41,302 -14.56,28.46 -30.19,56.36 -45,84.68 -11.69,22.3 -8.88,31.82 12.64,44.16 54.71,31.39 86.91,79.16 101.85,139.53 5.68,22.26 9.08,45.05 10.15,68 1,24.29 2.43,48.66 1.41,72.9 -2.53,62.98 -14.32,125.24 -35,184.78 -6.12,17.59 -13.17,34.87 -19.62,52.35 -2.15,5.82 -5.18,11.8 -0.11,19.07 9.33,-1.64 19,-3.51 28.77,-5 39,-6 74.87,0.65 106.16,26.23 31.14,25.46 43.05,57.6 33.76,96.9 -17.89,75.7 -52.55,142.76 -104,201.18 -18.14,20.54 -38.23,39 -59.54,56.21 -53.23,43 -95.91,95.11 -131.28,153.41 -5.71,9.4 -11.12,19 -16.54,28.53 -1.65,2.89 -3.08,5.9 -4.27,9 -4.6,12 -2.33,20.29 7.87,28.17 3.48,2.57 7.12,4.9 10.9,7 14.68,8.54 29.53,16.82 44.08,25.58 5.74,3.39 11.1,7.39 16,11.91 11.12,10.46 12.93,21.82 5.59,35.22 -3.64,6.65 -8.4,12.69 -13.13,19.73 6.77,11 16.61,18.47 28.08,24.15 13.46,6.67 28.07,8.7 42.71,8.82 20.66,0.18 41.28,-1.28 61.33,-7.07 33.74,-9.76 58.99,-30.06 75.76,-60.89 1.38,-2.53 2.3,-5.29 3.84,-8.88 -11.07,-1.86 -22.43,-1.1 -33.15,2.23 -37.09,11 -73,8.17 -107.71,-9.19 -2.44,-1.04 -4.76,-2.36 -6.9,-3.94 -1.8,-1.41 -3.14,-3.34 -3.83,-5.52 -2.07,-9.32 10.57,-23.52 20.05,-22.41 4.27,0.67 8.45,1.8 12.47,3.37 43.85,15.28 87.41,16.06 130.61,-2.43 29.92,-12.81 53.73,-33.12 72.21,-59.69 4,-5.69 6.82,-12.19 9.89,-18.46 1.45,-3 2.65,-6.13 -0.39,-9.2 -2.76,-2.79 -5.43,-1.37 -8.27,-0.46 -15.86,5.05 -31.8,9.84 -47.58,15.12 -34.9,11.66 -69.41,10.5 -103.62,-2.69 -14.12,-5.45 -17.05,-12.09 -11.88,-26.53 0.91,-2.5 1.96,-4.94 3.15,-7.32 3.51,-7 9.22,-10.53 17.06,-9.51 5.93,0.8 11.79,1.97 17.57,3.51 32.59,8.59 65.15,10.3 97.36,-1.31 36.44,-13.14 63,-37.78 81.27,-71.67 0.82,-1.44 1.49,-2.96 2,-4.54 1.72,-5.7 -1.45,-9.43 -7.15,-7.79 -10.23,2.93 -20.57,5.77 -30.36,9.85 -38.76,16.14 -77.13,15.31 -115.4,-1.42 -0.31,-0.13 -0.59,-0.32 -0.89,-0.46 -13.1,-5.94 -15.72,-13.68 -9.14,-26.37 3.82,-7.36 9.72,-11 17.9,-9.79 7.56,1.09 15,3.1 22.52,4.35 32.67,5.43 63,-1.8 91.21,-18.14 38.43,-22.27 64.14,-54.59 74.09,-98.39 3.17,-14 4.91,-28.17 -0.15,-43 -2.34,1.06 -4.54,1.7 -6.34,2.94 -7.95,5.49 -15.91,11 -23.63,16.78 -32.84,24.67 -69.88,35 -110.65,32.54 -9.21,-0.57 -17.1,-4.65 -24.61,-11.3 5.84,-10.33 11.6,-20.4 17.25,-30.53 2,-3.58 5,-4.74 9,-5.28 8.89,-1.22 17.86,-2.4 26.52,-4.64 28.51,-7.35 51.47,-23.31 68.69,-47 20.69,-28.51 34.17,-60.27 38.14,-95.38 1.33,-11.71 -0.82,-23.83 -1.49,-35.75 0,-0.79 -1,-1.53 -2,-2.82 -1.71,0.88 -3.35,1.88 -4.92,3 -25.68,21.56 -55.19,37.17 -83.94,54 -0.87,0.49 -1.77,0.93 -2.69,1.32 -13.11,5.78 -20.61,2.88 -26.39,-10.21 -6.72,-15.2 -4.15,-23 10.49,-31.46 11.54,-6.64 23.63,-12.45 34.67,-19.83 50.56,-33.84 70.5,-82.49 66,-141.81 -1.11,-14.77 -5.65,-29.33 -9.13,-43.86 -1.81,-7.59 -6.41,-13.73 -13.25,-19.23 -1.37,2.15 -2.87,3.8 -3.59,5.74 -4.86,13.1 -9.76,26.2 -14.25,39.43 -8,23.48 -19.92,44.32 -39.32,60.28 -9.61,7.91 -20.19,14 -32.84,17.16 -6.75,-6.86 -11.97,-15.08 -15.32,-24.1 -2.74,-7 -1.72,-14.93 2.71,-21 4.93,-7.09 10.17,-14 15.64,-20.71 20.31,-24.94 34.86,-52.67 41.45,-84.34 5.3,-25.49 4.35,-51 0,-76.46 -0.34,-2 -0.65,-4.15 -1.74,-5.7 -7.06,-10 -15.26,-19.08 -24.25,-28.68 -8.67,9.65 -15.52,18.91 -19.7,29.89 -6.38,16.8 -12.4,33.74 -18.78,50.54 -1.96,5.44 -4.37,10.72 -7.19,15.77 -6,10.43 -13.17,10.87 -19.92,1 -11.4,-16.61 -14.89,-34.74 -8.35,-54.13 2.15,-6.29 4.85,-12.39 8.07,-18.21 21.67,-39.49 29.23,-81.64 25.28,-126.34 -2.18,-24.65 -7.16,-48.69 -12.93,-72.65 -3.16,-13.11 -10.33,-23.46 -21.93,-32.73 -1.2,3.75 -2.35,6.38 -2.86,9.12 -4,21.59 -7.89,43.21 -11.92,64.8 -4.84,26 -11.6,51.32 -24.76,74.52 -3.1,5.47 -6.63,10.7 -10.73,17.27 -1.65,-3.25 -3,-5.34 -3.84,-7.62 -4.11,-11.25 -8.5,-22.41 -12,-33.85 -6.09,-20 -3.24,-38.88 8.45,-56.27 11.15,-16.42 16.44,-36.13 15,-55.93 -0.65,-11.97 -2.79,-23.81 -6.38,-35.24 -11.04,-33.84 -22.77,-67.45 -35.2,-100.83 -3.16,-8.49 -9.88,-15.67 -15,-23.44 -1.89,-2.89 -4.44,-3.62 -7.78,-2.8 -3.84,0.94 -5.34,3.32 -5.77,7.09 -1.91,16.86 -4.22,33.69 -5.93,50.57 -1.1,10.92 -1.53,21.91 -2,32.88 -0.35,7.6 -2.57,14.34 -7.65,20.09 -3.34,3.79 -7.46,5.15 -11.36,1.79 -4.18,-3.6 -9,-7.59 -10.88,-12.44 -2.8,-7.29 -4.76,-15.53 -4.46,-23.27 1.94,-50.87 19.81,-95.4 54.88,-132.66 2.8,-3 6.28,-5.3 11.48,-9.61 0.3,6.46 0.43,10.28 0.68,14.09 0.36,5.63 0.38,11.33 1.31,16.87 1.17,7.07 5.63,13.17 12,16.44 17.27,9.41 35.89,8 48.86,-7.44 11.52,-13.7 17.43,-29.73 18.34,-47.61 0.91,-17.88 -4,-35 -7.06,-52.33 -4.1,-23.27 -9.16,-46.43 -11.81,-69.86 -1.73,-15.42 -0.15,-31.24 0.39,-46.87 0.2,-5.48 3.44,-6.78 8.16,-3.41 4.16,2.79 7.9,6.15 11.1,10 18.43,23.65 36.29,47.75 54.87,71.29 19.8,25.07 23.82,53.17 15.93,83.07 -7,26.68 -15.7,52.94 -23.68,79.38 -4.52,15 -9.8,29.75 -13.5,44.92 -5.86,24 1.93,44.09 20.67,59.75 14.56,12.18 31.63,12.1 46.45,-0.63 27.38,-23.51 38.84,-53.39 33.35,-89.27 -1.45,-9.46 -4,-18.76 -6.18,-28.86 11.2,-4.07 21.59,-3.29 30.78,3.07 21.82,15.11 35.73,35.68 39.4,62.28 2.82,20.42 -0.48,40.12 -11.57,57.64 -11.92,18.84 -24.52,37.29 -37.55,55.38 -18.52,25.71 -36.46,51.77 -51.53,79.66 -4.98,9.04 -9.21,18.47 -12.63,28.21 -10.68,31.32 10.21,73.46 40.87,83.49 24.16,7.89 50.27,-2 65,-24.82 9.72,-14.97 13.96,-32.85 12,-50.59 -1.48,-14.88 -4.28,-29.64 -6.51,-44.45 -0.59,-3.91 -1.24,-7.83 -1.9,-12 8.28,3.43 20.16,13.11 26.55,21.8 23.81,32.4 39.11,68.16 40.73,108.75 1.12,28.37 -4.77,55.71 -16.41,81.57 -6.69,14.86 -14.71,29.12 -22.14,43.64 -6.67,13 -13.86,25.85 -19.92,39.17 -9.63,21.17 -7.89,42.22 3.21,62.39 12.29,22.34 36.43,31.57 60.66,23.67 32.94,-10.73 52,-43.3 45.58,-78 -0.91,-4.91 -2.06,-9.78 -2.83,-14.71 -0.28,-1.78 0.25,-3.68 0.5,-6.67 2.51,1.32 4.64,1.76 5.59,3.06 4.88,6.66 10.95,12.95 13.92,20.44 30.13,75.84 18.61,145.58 -32.69,208.61 -11.53,14.17 -25.19,26.59 -37.76,39.94 -4.79,5.09 -9.27,10.47 -13.85,15.76 -24.62,28.49 -30.49,61.32 -22.19,97.28 1.79,7.76 4.5,15.31 6.76,23 9.6,32.67 45.47,45.88 73.9,37.68 20.77,-6 32.52,-20.56 33.12,-43.42 0.38,-15 -0.76,-29.95 -1.26,-44.93 -0.21,-5.94 -0.55,-11.88 0.76,-18.71 2.87,3.84 6,7.52 8.56,11.54 7.05,10.95 13.43,22.22 15.19,35.49 0.19,1.49 1.54,2.83 2.35,4.24 v 36 c -0.84,1.67 -2.12,3.26 -2.45,5 -0.89,4.9 -1,10 -2.14,14.78 -2.67,11 -5.23,22 -8.85,32.72 -14.62,43.09 -44.57,69.36 -88.93,78.83 -16.25,3.46 -32.85,5.2 -49.2,8.25 -32.66,6.07 -55.65,23.78 -67.18,55.73 -9.54,26.42 7.72,59.79 36.52,66.27 34,7.65 70,-4.13 88.8,-33.15 1.06,-1.63 2.3,-3.13 3.39,-4.62 5.36,2.53 5.33,2.53 5.46,7.74 0.64,25.26 -7.8,48 -21,68.73 -28.64,45 -70.39,68.73 -123.18,73.13 -24.65,2 -48.91,5.55 -72.39,13.63 -12.48,4.3 -22.47,11.86 -29.15,23.1 -11.94,20.12 -15.45,41.68 -8.63,64.35 6.44,21.4 20.55,32.22 42.79,31.93 23.66,-0.3 44.41,-8.08 59.91,-26.94 4.65,-5.67 9.14,-11.46 13.64,-17.25 1.53,-2 2.86,-4.08 4.28,-6.12 l 2.13,1.36 c 0.41,5.59 1.9,11.35 1,16.73 -7.49,47.38 -52.71,87.87 -100.6,91.43 -25.88,1.93 -51.71,4.73 -77.48,7.89 -26,3.18 -40.8,17.69 -43.76,40.52 -1.21,9.27 1.74,16.23 8.61,22.06 8.4,7.15 18.31,10.61 29,12.43 6.6,1.12 13.14,2.52 19.71,3.8 -1.53,1.63 -3.54,2.74 -5.73,3.19 -25.85,6.32 -51.75,12.51 -77.58,18.93 -34.23,8.51 -68.36,17.41 -102.64,25.67 -11.27,2.71 -22.89,3.94 -34.35,5.85 h -2 c -6.86,-1.14 -13.77,-2.06 -20.58,-3.47 -23.31,-4.86 -43.53,-16.3 -62.46,-30.2 -14,-10.26 -27.36,-21.28 -41.47,-31.32 -16,-11.39 -32.11,-22.74 -48.9,-32.91 -34.6,-21 -68.13,-18.87 -100.67,5.19 -2.41,1.79 -4.75,3.66 -7.17,5.44 -40.18,29.39 -84.25,36.28 -131.68,22.18 -15.69,-4.7 -30.41,-12.17 -43.46,-22.07 -23.13,-17.45 -46.18,-35 -68.87,-53 -14.7,-11.66 -30.56,-19.78 -49.59,-16.1 -10.39,2.18 -20.43,5.81 -29.8,10.8 -57.37,29.67 -114.33,60.16 -171.74,89.76 -55.18,28.46 -113.77,37.28 -174.55,24.76 -42.38,-8.73 -84.67,-17.66 -127.44,-24.24 -2.59,-0.4 -5,-1.63 -7.57,-2.47 0.17,-0.82 0.33,-1.64 0.5,-2.46 4.22,0 8.44,0.1 12.65,0 12,-0.34 24,-0.56 35.9,-1.25 6.79,-0.26 13.15,-3.42 17.47,-8.67 10.24,-12.67 12.13,-27.26 7.06,-42.39 -4.65,-13.87 -16,-19.22 -29.68,-19.4 -17.29,-0.23 -34.6,0.28 -51.88,0.85 -9.31,0.3 -18.64,2.4 -27.87,2 -36.62,-1.78 -67.83,-16 -92.39,-43.4 -26.3,-29.34 -33.85,-63.35 -23,-101.28 1.49,-5.21 3.39,-10.4 8.19,-15.25 3.83,10.25 7,19.34 10.61,28.26 11.11,27.6 37.57,44.68 66.74,43.28 29.17,-1.4 47.58,-20.18 48.19,-49.35 0.5,-23.63 -8.1,-43.52 -25.58,-59.52 -15.61,-14.3 -34.76,-18.76 -55.11,-20.27 -23.9,-1.77 -47.8,-3.54 -71.66,-5.83 -40.23,-3.85 -71.79,-23.25 -95.37,-55.53 -19.74,-27 -29.12,-57.36 -26.47,-91 0.44,-5.7 1.65,-11 7.6,-15.57 2.83,6.77 5.11,12.93 8,18.82 3.9,8.06 7.33,16.57 12.55,23.72 16.38,22.46 40.23,30.49 66.78,32.65 15.5,1.26 26.08,-6 33.48,-19 8.51,-14.92 9.48,-30.38 2.58,-46 -14.44,-32.69 -38.68,-54.6 -73.27,-64.22 -14.4,-4 -29.13,-6.88 -43.77,-10 -42.61,-9.11 -75.92,-31.79 -98.66,-68.94 -25.63,-41.88 -32.27,-87.33 -24,-135.51 2.64,-15.26 10.95,-26.92 20.09,-38.4 1,-1.27 3.5,-2.44 4.82,-2 1.32,0.44 2.62,2.83 2.67,4.42 0.01,3.65 -0.29,7.3 -0.9,10.9 -1.86,13.22 -3.62,26.4 -0.93,39.74 6.46,31.92 24.09,55.32 53.75,68.8 24,10.91 46.39,1.85 56.78,-22.32 3.27,-7.65 5.88,-15.57 7.81,-23.66 6.74,-28 1.77,-53.39 -20.12,-73.14 -23.49,-21.18 -47.41,-42 -72.25,-61.54 -44.29,-34.9 -72.28,-79.35 -83,-134.66 -2.21,-11.43 -3.84,-23 -5.76,-34.45 -0.49,-2.92 -0.5,-6.21 -4.61,-6.62 z m 1356.68,175 c -5.17,-2.19 -10.23,-4.7 -15.53,-6.51 -23.62,-8 -47.09,-16.57 -71,-23.52 -19.37,-5.62 -36.21,0.21 -48.94,16.25 -3.34,4.14 -6.35,8.54 -9,13.16 -6.05,10.81 -5,19.06 3.48,28.24 4.06,4.41 8.55,8.42 12.64,12.79 29.89,31.94 61.71,61.72 97.33,87.25 29.74,21.32 61.42,38.54 97.54,46.57 19.7,4.38 36.2,-1.06 49.78,-15.64 4.3,-4.62 8.11,-9.72 12,-14.73 74.14,-96.24 125.76,-203.55 157.47,-320.63 17.5,-64.57 28.4,-130 26.24,-197.23 -1,-30.37 -4.09,-60.46 -12.11,-89.85 -14.88,-54.49 -45.67,-97.15 -94.85,-125.8 -20.19,-11.76 -34.53,-10.63 -52.35,3.92 -42.58,34.76 -85.12,69.57 -127.61,104.43 -3.39,2.7 -6.58,5.63 -9.57,8.77 -6.44,6.95 -6.3,11.18 0.73,17.83 3.72,3.33 7.61,6.47 11.65,9.41 12.39,9.55 25.1,18.73 37.18,28.66 13.04,10.6 22.58,24.89 27.36,41 5.21,17.6 6.93,36.05 5.08,54.31 -3.18,34.76 -14.11,66 -38.08,92.38 -17.57,19.31 -26.62,42.61 -28.79,68.74 -1.61,19.36 -5.92,38.19 -14.75,55.66 -7.06,14 -14.68,27.63 -21.86,41.53 -4,7.68 -8.19,15.32 -11.19,23.39 -5.62,15.1 -2.4,24.4 10.44,33.95 2.34,1.75 4.42,3.85 6.62,5.78 z m 213.22,592.53 c -3.28,-14.69 -10.46,-24.28 -23.7,-31 -49.34,-24.91 -98.18,-50.83 -147.17,-76.45 -7.07,-3.7 -14.12,-7.52 -20.87,-11.77 -13.78,-8.68 -23.12,-20.66 -27.47,-36.67 -1.99,-7.03 -4.81,-13.79 -8.41,-20.15 -7,-12.64 -18.61,-18.89 -32.74,-19.83 -7.31,-0.47 -14.65,-0.11 -21.88,1.08 -25.94,4.26 -51.68,9.78 -77.7,13.38 -28.53,3.95 -57.21,3.51 -85.41,-3.27 -80.58,-19.37 -161,-39.18 -241.66,-58.38 -39.13,-9.31 -77.89,-20.45 -118.33,-23.65 -47.07,-3.73 -91.74,3.61 -132.93,27.21 -17.31,9.91 -33.59,21.64 -50.35,32.51 -2.35,1.52 -4.83,2.86 -7.75,4.58 0.2,-1.66 0.1,-2.37 0.38,-2.84 0.71,-1.12 1.5,-2.2 2.35,-3.22 24.15,-30.12 55.75,-48.46 93.08,-56.18 28.65,-5.92 57.76,-9.57 86.65,-14.34 6.23,-1 12.54,-2 18.52,-3.94 9.74,-3.15 12,-8.23 8.31,-17.62 -1.85,-4.63 -4.08,-9.11 -6.67,-13.38 -15.72,-26.3 -31.52,-52.56 -47.41,-78.77 -2.02,-3.45 -4.31,-6.74 -6.83,-9.84 -10,-12 -20.29,-13.54 -33.15,-4.39 -6.22,4.42 -11.89,9.66 -17.63,14.73 -41.72,36.83 -83.86,73.21 -121.73,114.14 -23.24,24.89 -42.82,52.95 -58.16,83.34 -26.52,52.95 4.35,118.33 62.1,131.17 30.99,6.81 62.94,8.13 94.39,3.89 45.22,-5.88 90.39,-12.18 135.66,-17.65 54.58,-6.6 109.37,-10.73 164.36,-11.88 33.67,-0.7 67.28,-0.65 100.9,1.85 27.89,2.07 55.86,3.1 83.79,4.67 27.22,1.53 54.44,3.11 81.66,4.73 l 0.39,2 c -12.64,1.06 -20.45,9.22 -27.64,18.09 -8.39,10.32 -16.07,21.32 -24.85,31.32 -14.7,16.79 -17.95,35.54 -12.7,56.82 6.29,25.52 11.83,51.22 17.54,76.88 1.63,7.29 2.71,14.71 4.1,22.41 -7.35,0.45 -6.9,-4.89 -7.78,-8.14 -2.8,-10.27 -4.54,-20.83 -7.43,-31.07 -16.43,-58.13 -48.68,-107 -89.52,-150.55 -12.67,-13.5 -28.47,-20.05 -47.41,-19.66 -41.64,0.86 -83.3,1 -125,1.59 -18.2,0.26 -22,6.4 -14.68,23.17 9.36,21.34 18.76,42.67 28.38,63.9 20.29,44.74 44,87.5 74.52,126.18 19,24.12 39.29,47.17 64.37,65.3 39.27,28.37 82.86,40.22 131.14,33 34.93,-5.25 65.5,-20.24 91.7,-43.48 17.48,-15.42 34.11,-31.77 49.81,-49 35.92,-39.65 65,-84.39 93.85,-129.29 2.33,-3.65 4.19,-7.57 5.54,-11.67 2.55,-7.75 0.75,-13.05 -6.28,-17 -5.26,-2.84 -10.81,-5.13 -16.55,-6.81 -37.54,-11.52 -75.12,-22.93 -112.73,-34.22 -15.18,-4.59 -30.37,-9.15 -45.58,-13.68 1.57,-0.84 3.4,-1.07 5.13,-0.66 21.74,4.93 43.68,9.15 65.17,15 75.74,20.76 151.37,41.92 226.89,63.47 13.42,3.8 24.02,0.43 35.42,-6.01 z m 12.68,-251.07 c 12.63,-2.68 18.64,-5.91 26.47,-13.84 11,-11.15 22.2,-22.11 33,-33.41 19.6,-20.44 39.51,-40.62 58.37,-61.72 42.22,-47.22 72.31,-101.07 87.08,-163.07 4.43,-18.6 7.81,-37.35 4.22,-56.35 -6.8,-36 -30.16,-56.7 -64.26,-66.4 -27.91,-7.93 -55.5,-3.37 -82.86,3.45 -16.06,4 -27.87,13.77 -36.19,27.88 -4.57,7.75 -8.82,15.68 -13.4,23.42 -25.93,43.87 -51.8,87.78 -78,131.51 -9.8,16.37 -21.35,31.44 -36.56,43.31 -20.36,15.89 -43.11,20.95 -67.67,12.76 -11.92,-4.14 -23.36,-9.56 -34.11,-16.18 -11.62,-7.18 -22.73,-15.18 -33.22,-23.94 -42.09,-34.32 -83.9,-69 -125.82,-103.52 -3.34,-2.75 -6.57,-5.66 -10.05,-8.22 -10.54,-7.75 -18.17,-7 -25.42,3.67 -4.43,6.51 -8.41,13.79 -10.54,21.31 -7.55,26.6 -1,50.54 15.39,72.33 9.51,12.62 22,17.85 37.5,16.21 6.96,-0.68 13.86,-1.88 20.64,-3.59 6.47,-1.68 12.39,-1.14 19.69,1.88 -1.74,5.41 -2.62,11.09 -5.22,15.83 -15.59,28.5 -49.13,44.2 -81.35,38.59 -23.02,-4.01 -45.16,-12.05 -65.4,-23.73 -45,-25.82 -73.4,-62.85 -77.2,-116.19 -0.37,-8.04 -3.62,-15.69 -9.15,-21.55 -9.84,6.65 -20.3,12.2 -28.9,19.83 -22,19.54 -41.4,41.54 -56.55,67 -24.84,41.68 -37.67,86.45 -33.81,135.28 4,50.25 35.31,88.27 83.77,101.68 25.29,7 51.22,8.2 77.26,7.15 6.32,-0.29 12.56,-1.58 18.48,-3.81 13.75,-5.2 21.19,-15.38 21.93,-30.37 0.5,-10.19 -1.55,-19.88 -4.74,-29.4 -8.81,-26.18 -17.72,-52.32 -26.55,-78.49 -1,-3 -1.77,-6 -2.65,-9 9,9.17 14.46,20.09 18.56,31.65 5,14.11 9.46,28.4 14.17,42.61 7.28,22 17.08,42.65 31.18,61.11 7,9.11 15.29,16.57 25.83,21.55 29.46,13.91 60.5,18.29 92.52,14.24 40.62,-5.13 73.8,-23.88 97.85,-57.47 11.05,-15.43 21.37,-31.38 32.13,-47 1.69,-2.47 2.52,-6.07 7.89,-6.94 v 34.22 c 2.3,0.18 3.33,0.53 4.19,0.28 3.84,-1.1 7.67,-2.23 11.42,-3.6 34.72,-12.78 67.84,-29.54 98.71,-49.93 29.74,-19.69 57.78,-41.85 83.82,-66.24 3.3,-3.07 6.71,-6 10.07,-9 -1.56,3.85 -3.92,7.33 -6.93,10.21 -16.1,16.34 -23.12,36.11 -22.9,58.84 0.19,20 0.07,40 0,59.94 0.1,9.09 3.06,17.35 7.31,25.17 z m 188.65,-1470.29 c -6.54,-1.52 -12.19,0.37 -17.22,3.77 -8.55,5.78 -17.38,11.32 -25.07,18.12 -12.84,11.34 -23.32,9.93 -35.07,1.4 -12.75,-9.26 -25.74,-17.9 -42.12,-19.21 -1.65,-0.25 -3.26,-0.75 -4.76,-1.47 -7.77,-3.16 -12.55,-8.69 -12.94,-17.3 -0.31,-5 -0.26,-10.01 0.14,-15 2.18,-22.53 4.42,-45 7,-67.54 1,-8.71 -1.85,-15.41 -8,-21 -12.88,5.87 -17.69,11.06 -22,26.9 -7.41,26.94 -14.8,53.92 -21,81.16 -5.62,24.84 -3.59,49.64 4.39,73.91 5.63,16.77 14.1,32.44 25.05,46.33 9.89,12.76 16.57,27 14.11,43.45 -1.29,9.19 -4.07,18.11 -8.21,26.41 -10.67,20.71 -22.07,41.08 -34,61.1 -46.75,78.65 -102.84,149.93 -169.6,212.61 -63.04,59.13 -134.33,108.82 -211.62,147.51 -25.77,13 -49.69,28.56 -69.47,49.82 -16.71,18 -30.75,37.67 -38,61.48 -4.7,15.42 -2.28,29.85 8,42.3 5.35,6.36 11.33,12.17 17.85,17.33 16.1,12.94 32.68,25.27 48.9,38.07 12.8,10.12 25.76,20.1 37.9,31 21.09,18.9 36.41,41.59 41.67,70 4.2,22.67 5.47,45.6 5.21,68.64 -0.3,23.33 -3.63,46.53 -9.93,69 -5.52,19.89 0.92,33 19.59,41.16 7.33,3.2 14.73,6.23 22.18,9.1 18.25,7 30.35,1.9 37.81,-16 18.88,-45.15 37.24,-90.43 47,-138.75 4.47,-22.13 14,-42.3 30.78,-58.36 2.82,-2.69 4.88,-6.35 6.71,-9.86 9.39,-18.09 17,-36.87 21.12,-56.92 12.71,-61.85 -19.54,-107.36 -70.35,-129.57 -26.12,-11.43 -52.44,-3.12 -68.57,20.45 -5.19,7.6 -8.48,16.5 -12.53,24.87 -1.36,2.82 -2.38,5.81 -3.55,8.73 l -2,-0.36 c 0.27,-4.77 0,-9.64 0.89,-14.3 2.52,-13.92 11.18,-23.85 21.93,-32.3 38.25,-30.05 76.5,-60.11 114.73,-90.19 25.68,-20.15 52.05,-39.48 77,-60.5 33.12,-27.92 60.44,-60.91 80.88,-99.41 33.29,-62.67 63,-127 90.68,-192.33 19.14,-45.12 36.08,-90.89 44.72,-139.43 3.83,-21.51 11.93,-41.77 26,-58.81 7.79,-9.44 17.05,-17.72 26,-26.18 8.54,-8.23 14.47,-16.82 7.77,-29.88 z m -883.42,1082.51 -0.63,-1.53 c 2.31,-1.68 4.7,-3.23 7.17,-4.66 13.87,-7.22 27.54,-14.87 41.76,-21.32 15.93,-7.22 25.35,-18.81 28.29,-36 1.75,-10.16 3.61,-20.3 5.8,-30.37 4.26,-19.54 8.48,-39 7.73,-59.23 -0.69,-18.34 -4.79,-35.27 -15.33,-50.83 -18,-26.59 -38,-51.44 -61.29,-73.59 -4.03,-3.98 -8.46,-7.52 -13.23,-10.56 -9.45,-5.78 -16.13,-3.79 -21.32,6.18 -2.26,4.44 -4.03,9.12 -5.29,13.94 -3.28,12.21 -6.24,24.51 -9.24,36.79 -16.7,68.56 -34,137 -39.64,207.68 -2.16,25.9 -2.4,51.93 -0.7,77.86 0.63,7.3 2.13,14.5 4.47,21.44 4.9,15.3 15.37,24.81 31.63,26.62 6.88,0.77 14.09,1.13 20.84,-0.07 26.87,-4.73 53.64,-10 80.4,-15.36 20.23,-4 40.46,-8.12 60.54,-12.8 15.79,-3.67 22.07,-13.24 20.39,-29.29 -0.38,-3.64 -0.88,-7.28 -1.6,-10.87 -3.21,-16 -6,-32.06 -10,-47.85 -2.78,-11.08 -7.66,-14 -18.9,-13.57 -3.99,0.12 -7.96,0.66 -11.83,1.63 -30,7.71 -59.9,15.6 -89.85,23.4 -3.34,0.9 -6.77,1.59 -10.17,2.36 z m 91.63,-683.92 c -0.19,1.65 -0.7,3.29 -0.49,4.83 1.73,12.17 3.47,24.35 5.47,36.48 2,12.13 9.88,18.29 21.53,20.41 6.54,1.2 13.06,2.52 19.59,3.8 5.84,1.14 10.5,3.78 13.34,9.37 3.29,6.45 9.15,9.53 16,10.72 5.57,1.02 11.19,1.75 16.84,2.16 13.56,0.85 23.17,6.08 27.58,20.13 3.86,12.29 16.5,18.18 28.91,14.87 3.25,-0.74 6.35,-2.03 9.16,-3.82 13.91,-9.7 28.29,-18.9 41.28,-29.74 16.93,-14.13 29.19,-32 34.77,-53.67 2.23,-8.64 3.21,-17.64 4.31,-26.54 0.52,-4.19 1.46,-7.41 5.31,-10 11.94,-7.89 17.55,-19.81 19.42,-33.5 1.62,-11.86 2.63,-23.82 3.54,-35.76 1,-13.27 -7.13,-24.6 -20.16,-28.75 -13.88,-4.41 -23.62,0.32 -28,14.3 -2.08,6.63 -3.11,13.6 -4.4,20.46 -1.68,8.9 -3.15,17.85 -4.71,26.77 -2.18,-3.21 -3.59,-6.88 -4.11,-10.73 -3.4,-19.67 -6.09,-39.49 -10.21,-59 -5.54,-26.26 -19.68,-45.63 -46.89,-53 -12.13,-3.31 -24.47,-3.19 -36.67,-1 -32,5.83 -55.17,22.29 -64.33,55 -1.22,4.38 -2.88,8.64 -4.95,14.78 -4.1,-5.3 -6.91,-9.31 -10.1,-13 -7.18,-8.3 -14.21,-16.76 -21.92,-24.54 -6,-6 -13.7,-8.46 -22,-5.32 -8.86,3.34 -12.8,10.83 -13,19.65 -0.35,19.18 4.84,37.83 26.71,47 5.71,2.39 11.14,5.47 16.69,8.23 l -0.22,1.89 -37.74,9.14 c -0.16,0.78 -0.31,1.55 -0.47,2.33 2.55,1.77 5,3.69 7.67,5.28 15.15,9.07 30.38,18 45.49,27.12 2.64,1.59 6.48,2.38 6.55,7.92 -12.57,4.64 -26.56,1.74 -39.79,5.73 z m 43.48,109.24 c 1.57,-4.53 2.39,-7 3.28,-9.49 6.72,-18.66 1.72,-26.84 -18.18,-29.06 -10.9,-1.21 -21.84,-2.24 -32.8,-2.73 -28.58,-1.29 -57.21,-3.54 -85.76,-3 -28.1,0.59 -51.76,12 -66.21,37.73 -17.88,31.83 -11.41,74.48 15.74,100.13 40.12,37.89 87,58.29 143.19,52.87 31.33,-3 59.76,-13.21 82.7,-35.58 21.43,-20.89 35.31,-46.45 44.4,-74.76 0.42,-1.26 0.74,-2.56 0.94,-3.88 1.53,-10.51 -3.33,-17.57 -13.76,-19.39 -3.61,-0.49 -7.26,-0.56 -10.89,-0.23 -4.64,0.26 -9.26,0.94 -13.89,1.35 -4,0.34 -6.91,-0.89 -9,-4.68 -5.85,-10.52 -15.31,-12.94 -26.48,-11.13 -3.87,0.71 -7.75,1.14 -13.28,1.85 z m 537.43,863.41 c -8.87,4.29 -16.18,7.44 -23.14,11.24 -45.31,24.74 -90.77,49.23 -135.7,74.66 -19.08,10.81 -37.34,23.21 -55.33,35.79 -15,10.47 -16.41,21.64 -6.87,37 3.86,6.22 7.08,12.82 10.93,19.05 7.85,12.73 15.69,25.49 24,37.94 5.61,8.38 13.51,14.97 22.75,19 18.85,8.34 37.77,16.56 56.94,24.14 11.11,4.4 18.15,1.25 24.25,-9.21 6.89,-11.8 13.67,-23.65 20.47,-35.49 19.58,-34.08 39.2,-68.15 54.84,-104.29 13.18,-30.43 17.41,-62 10.93,-94.74 -0.89,-4.4 -2.36,-8.75 -4.07,-15.05 z m -636.59,103.71 c 0.74,-11.38 0.51,-13 -5.07,-20.63 -9.6,-13.21 -16.19,-27.87 -17.56,-44 -1.14,-13.49 -0.09,-27.21 0.56,-40.81 0.5,-10.27 2.59,-20.5 2.78,-30.77 0.4,-22.44 -7.53,-34 -28.81,-41.23 -11,-3.7 -22.52,-5.72 -33.91,-8 -16.16,-3.29 -31.09,-9.66 -45.08,-18.11 -4.08,-2.46 -6.88,-7.07 -10.21,-10.75 -7.57,-8.38 -14.56,-17.38 -22.77,-25.07 -18.67,-17.48 -41.45,-28.72 -63.77,-40.7 -12.3,-6.74 -26.16,-10.09 -40.18,-9.71 -11.15,0.25 -11.15,0 -15.89,11.51 1.41,2.26 2.89,4.84 4.56,7.29 38.28,56.11 76.57,112.22 114.87,168.31 11.83,17.33 23.51,34.75 35.36,52.06 12.79,18.69 29,33.16 51.52,38.65 18.41,4.49 37,8.31 55.62,11.83 5.65,1.07 11.68,0.17 17.98,0.17 z M 2780.43,1742 c -11.69,-6.68 -22.7,-12.82 -33.57,-19.2 -18.92,-11.13 -37.76,-22.39 -56.62,-33.61 -2,-1.19 -4,-2.4 -6,-3.62 -7.62,-4.69 -14.65,-3.42 -21,2.35 -3.2,2.89 -6,6.17 -9,9.31 -22.48,23.63 -44.85,47.38 -67.51,70.86 -9.23,9.57 -19.75,18 -28.42,28 -5.27,6.1 -8.44,14.13 -12,21.57 -3.74,7.86 -1.86,15.3 4.51,20.86 10,8.73 20.42,17 30.94,25.13 2.19,1.41 4.87,1.87 7.4,1.26 6,-1.68 12.35,-3.33 17.64,-6.51 52.8,-31.74 105.38,-63.82 158.09,-95.71 7.5,-4.55 11.9,-11.18 15.54,-20.69 z M 1756.25,2778.28 c 0.47,6.85 0.3,12.14 1.29,17.2 3.21,16.41 11.51,30.42 22,43.09 25,30.14 56.49,51.21 92.87,65.24 17.68,6.93 36.4,10.83 55.38,11.54 5.44,0.18 11.29,1.13 16,-2.54 0,-1.16 0.23,-1.92 0,-2.47 -12.15,-26.22 -24.33,-52.43 -36.53,-78.63 -0.15,-0.3 -0.32,-0.59 -0.51,-0.86 -10.4,-17.16 -25.55,-24.81 -45.45,-21.9 -7.22,1.05 -13.79,0 -20.5,-2.35 -24.19,-8.35 -48.43,-16.55 -72.66,-24.77 -3.14,-1.05 -6.32,-1.89 -11.89,-3.55 z M 3123.38,3064 c -9.41,-2.75 -16.39,-3.33 -23.85,-1.8 -18.41,3.79 -37.09,4.65 -55.65,1.53 -26,-4.37 -47.16,-17.76 -64.24,-37.56 -4.77,-5.53 -10.26,-7.89 -17.38,-8 -6.36,-0.31 -12.66,1.39 -18,4.86 -18.04,12 -36.04,24 -54,36 -1,0.68 -1.55,2 -2.65,3.49 1.81,2.54 3.35,5.07 5.24,7.31 18.34,21.79 41.61,35.37 69.69,39.58 33.71,5.13 68.12,3.12 101,-5.91 19.41,-5.24 37.12,-15.47 51.35,-29.68 2.71,-2.7 5.03,-5.82 8.49,-9.82 z m -1176.56,-27.07 c 7,9.92 13.61,17.11 22.14,22.51 44.7,28.29 93.87,35.82 145.58,31 11.87,-1.1 22.36,-6.37 31.57,-13.86 9.53,-7.76 9,-16.29 -1.82,-22.11 -22.87,-12.26 -46.26,-23.52 -70.88,-31.95 -7.57,-2.6 -15.33,-3.87 -23.53,-2.56 -24.29,3.9 -48.65,7.31 -72.94,11.15 -9.45,1.49 -18.8,3.6 -30.12,5.81 z m 468.46,-602.62 c -5.6,-8.09 -5.63,-8.21 -15.24,-5.57 -52.41,14.19 -102.93,34.63 -150.47,60.88 -2.37,1.2 -4.6,2.66 -6.66,4.35 -4.94,4.39 -5.07,9.24 -0.12,13.66 2.53,2.15 5.41,3.85 8.5,5.05 5.53,2.28 11.23,4.14 16.89,6.08 20.14,6.9 40.21,14 60.45,20.55 12.81,4.17 19.38,1.68 26.11,-9.29 13.93,-22.7 28.59,-45 42.88,-67.43 5.89,-9.27 11.63,-18.59 17.66,-28.29 z m -570.93,490.45 c 5.45,12.93 11.87,23.66 20.44,33.12 23.45,25.92 52.54,41.54 86.94,47.15 13.16,2.26 26.59,2.4 39.79,0.41 14.3,-2.26 18.82,-10 13.14,-23.35 -10.82,-25.45 -29.39,-41.51 -57.09,-46.13 -22.64,-3.78 -45.28,-7.66 -68,-11.15 -11.07,-1.71 -22.3,-3.07 -35.22,-0.06 z M 2520,1961.67 c 2.59,-3.91 4.49,-6.53 6.13,-9.3 9.17,-15.43 18.3,-30.87 27.38,-46.34 5.23,-8.87 10.6,-17.67 15.53,-26.71 4.49,-8.25 3.37,-13.19 -3.85,-19.2 -3.58,-3 -7.36,-5.7 -11.16,-8.38 -14.72,-10.37 -22.71,-10.5 -36.62,1.12 -18.36,15.33 -36.18,31.3 -54.17,47.08 -1.13,1 -1.68,2.66 -2.85,4.57 17.19,21.63 39.24,37.66 59.61,57.16 z m -100.42,259.84 c -4.7,8.66 -12.12,55.91 -9.7,64.14 7.14,-2.6 14.27,-5.13 21.33,-7.82 4.69,-1.78 7.25,-5.32 8.62,-10.18 4.17,-14.98 -4.98,-36.19 -20.29,-46.14 z"
   style="fill:#7e26cc;fill-rule:nonzero"
   id="path2" />
        </g>
        <g
   transform="matrix(1.15474,0,0,1.15474,-1059.76,-450.253)"
   id="g8">
            <path
   d="m 2791.52,2372 c 1.97,-0.31 3.95,-0.45 5.94,-0.42 15.73,1.5 26,-6.59 33.29,-19.3 6.6,-11.56 12.8,-23.37 18.66,-35.32 19.07,-38.84 39.09,-77.26 56.5,-116.83 17.66,-40.16 26.83,-82.85 29.82,-126.73 1.73,-25.58 3.46,-51.16 5.19,-76.75 0.22,-3.16 0.78,-6.29 1.27,-10.16 6.69,3 8.17,7.87 9.24,13.15 3.56,17.31 3.96,35.13 1.17,52.58 -6.22,39.12 -12.57,78.19 -22.71,116.55 -11,41.47 -28.91,80 -48.59,117.91 -11.82,22.76 -23.87,45.39 -35.78,68.09 -2.46,4.34 -4.68,8.82 -6.65,13.41 -4.08,10.39 -2.36,16.72 6,24 1.73,1.51 3.59,2.87 4.84,3.86 -18.93,-7.91 -38.42,-16.06 -58,-24.18 z"
   style="fill:#7e26cc;fill-rule:nonzero"
   id="path6" />
        </g>
        <g
   transform="matrix(1.15474,0,0,1.15474,-1059.76,-450.253)"
   id="g12">
            <path
   d="m 2576.11,1590.31 c -9.92,23.43 -43.64,39.78 -67.51,33.18 -0.34,-28.04 39.78,-47.65 67.51,-33.18 z"
   style="fill:#7e26cc;fill-rule:nonzero"
   id="path10" />
        </g>
        <g
   transform="matrix(1.15474,0,0,1.15474,-1059.76,-450.253)"
   id="g16">
            <path
   d="m 2562.82,1552.86 -76.13,30.39 c 0.4,-8.39 2.68,-14.72 7.47,-19.89 13.01,-14.03 49.77,-21.04 68.66,-10.5 z"
   style="fill:#7e26cc;fill-rule:nonzero"
   id="path14" />
        </g>
        <g
   transform="matrix(1.15474,0,0,1.15474,-1059.76,-450.253)"
   id="g20">
            <path
   d="m 2368.68,1816.92 c -12.27,-7 -18.13,-16.14 -17.71,-29 0.36,-11.36 4.29,-22.33 11.23,-31.33 7.17,-9.51 17.06,-12.86 30.05,-10.32 -7.91,23.73 -15.61,46.8 -23.57,70.65 z"
   style="fill:#7e26cc;fill-rule:nonzero"
   id="path18" />
        </g>
        <g
   transform="matrix(1.15474,0,0,1.15474,-1059.76,-450.253)"
   id="g24">
            <path
   d="m 2320.23,1806.74 c -9.08,-5.76 -13.2,-14 -14.43,-23.31 -1.59,-11.56 -0.38,-23.34 3.51,-34.35 4.38,-12.38 13.91,-18.29 28.8,-17.08 -1.14,2.52 -2.11,4.72 -3.14,6.89 -4.41,9.25 -9.44,18.26 -13.11,27.8 -4.36,11.36 -4.68,23.32 -2.19,35.29 0.33,1.56 0.38,3.17 0.56,4.76 z"
   style="fill:#7e26cc;fill-rule:nonzero"
   id="path22" />
        </g>
        
        
    </g>
</svg>
