<svg xmlns="http://www.w3.org/2000/svg" xmlns:xlink="http://www.w3.org/1999/xlink" width="500" zoomAndPan="magnify" viewBox="0 0 375 374.999991" height="500" preserveAspectRatio="xMidYMid meet" version="1.0"><defs><g/><clipPath id="id1"><path d="M 48 31.5625 L 222.617188 31.5625 L 222.617188 252.8125 L 48 252.8125 Z M 48 31.5625 " clip-rule="nonzero"/></clipPath><clipPath id="id2"><path d="M 192 147 L 344 147 L 344 294 L 192 294 Z M 192 147 " clip-rule="nonzero"/></clipPath><clipPath id="id3"><path d="M 281.875 312.183594 L 163.585938 218.730469 L 260.292969 96.324219 L 378.582031 189.777344 Z M 281.875 312.183594 " clip-rule="nonzero"/></clipPath><clipPath id="id4"><path d="M 281.875 312.183594 L 163.585938 218.730469 L 260.292969 96.324219 L 378.582031 189.777344 Z M 281.875 312.183594 " clip-rule="nonzero"/></clipPath><clipPath id="id5"><path d="M 281.875 312.183594 L 163.585938 218.730469 L 260.292969 96.324219 L 378.582031 189.777344 Z M 281.875 312.183594 " clip-rule="nonzero"/></clipPath><clipPath id="id6"><path d="M 35 176 L 111 176 L 111 269 L 35 269 Z M 35 176 " clip-rule="nonzero"/></clipPath><clipPath id="id7"><path d="M 112.226562 270.128906 L 33.5625 266.460938 L 37.960938 172.066406 L 116.625 175.730469 Z M 112.226562 270.128906 " clip-rule="nonzero"/></clipPath><clipPath id="id8"><path d="M 112.226562 270.128906 L 33.5625 266.460938 L 37.960938 172.066406 L 116.625 175.730469 Z M 112.226562 270.128906 " clip-rule="nonzero"/></clipPath><clipPath id="id9"><path d="M 112.226562 270.128906 L 33.5625 266.460938 L 37.960938 172.066406 L 116.625 175.730469 Z M 112.226562 270.128906 " clip-rule="nonzero"/></clipPath></defs><path fill="#e19251" d="M 73.316406 49.4375 C 73.316406 49.4375 153.648438 50.703125 183.867188 49.4375 C 214.089844 48.167969 277.292969 47.984375 285.539062 50.023438 C 293.785156 52.0625 297.910156 56.460938 297.230469 66.835938 C 296.550781 77.214844 296.007812 133.355469 297.320312 161.722656 C 298.632812 190.089844 301.851562 252.667969 301.941406 261.050781 C 302.03125 269.433594 300.671875 275.234375 291.746094 274.601562 C 282.820312 273.964844 238.871094 268.574219 238.871094 268.574219 C 238.871094 268.574219 233.390625 253.167969 229.039062 221.175781 C 223.785156 182.613281 218.9375 159.773438 203.125 149.445312 C 187.3125 139.113281 133.125 103.042969 69.964844 103.042969 C 69.964844 103.042969 66.519531 92.121094 67.199219 76.625 C 67.878906 61.125 65.796875 52.652344 73.316406 49.4375 Z M 73.316406 49.4375 " fill-opacity="1" fill-rule="nonzero"/><g clip-path="url(#id1)"><path fill="#687a61" d="M 81.015625 83.117188 C 70.472656 100.105469 62.277344 106.347656 62.277344 137.851562 C 62.277344 169.359375 60.019531 170.242188 51.339844 203.078125 C 42.65625 235.910156 55.457031 252.8125 55.457031 252.8125 C 55.457031 252.8125 60.019531 249.628906 73.265625 241.882812 C 86.507812 234.140625 108.433594 206.75 112.996094 202.632812 C 117.558594 198.519531 136.292969 197.148438 163.667969 185.773438 C 191.042969 174.402344 222.578125 122.808594 222.578125 122.808594 C 222.578125 122.808594 199.28125 122.363281 182.402344 126.878906 C 165.527344 131.390625 156.359375 141.523438 147.675781 149.269531 C 138.996094 157.011719 133.058594 155.640625 117.070312 162.5 C 101.082031 169.359375 92.398438 181.660156 92.398438 181.660156 C 92.398438 181.660156 96.960938 172.101562 100.636719 151.570312 C 104.3125 131.039062 101.082031 135.152344 114.8125 100.019531 C 128.542969 64.882812 125.753906 31.609375 125.753906 31.609375 C 125.753906 31.609375 112.996094 31.5625 81.015625 83.117188 Z M 81.015625 83.117188 " fill-opacity="1" fill-rule="nonzero"/></g><g clip-path="url(#id2)"><g clip-path="url(#id3)"><g clip-path="url(#id4)"><g clip-path="url(#id5)"><path fill="#feddc5" d="M 232.320312 197.820312 C 238.195312 198.246094 244.023438 198.300781 249.800781 197.867188 C 236.703125 210.9375 212.910156 257.613281 212.910156 257.613281 C 212.910156 257.613281 225.722656 264.40625 254.652344 248.976562 C 272.320312 239.523438 285.734375 227.035156 297.824219 213.835938 C 278.953125 258.632812 280.410156 293.410156 280.410156 293.410156 C 280.410156 293.410156 322.941406 260.203125 331.300781 238.398438 C 337.527344 222.234375 349.03125 184.382812 340.457031 165.066406 C 340.296875 161.058594 337.652344 157.527344 333.839844 156.179688 C 333.066406 155.898438 332.152344 155.511719 331.183594 155.191406 C 329.808594 154.546875 328.394531 154.09375 326.871094 153.777344 C 321.859375 152.261719 315.980469 150.722656 311.40625 149.777344 C 290.101562 145.59375 273.546875 148.164062 257.480469 150.117188 C 241.414062 152.074219 192.238281 182.464844 192.238281 182.464844 C 192.238281 182.464844 199.582031 195.480469 232.320312 197.820312 Z M 232.320312 197.820312 " fill-opacity="1" fill-rule="nonzero"/></g></g></g></g><g clip-path="url(#id6)"><g clip-path="url(#id7)"><g clip-path="url(#id8)"><g clip-path="url(#id9)"><path fill="#41566b" d="M 37.707031 233.875 C 38.253906 235.53125 38.910156 237.144531 39.679688 238.710938 C 41.246094 241.621094 45.574219 248.40625 48.066406 250.808594 C 50.894531 253.539062 51.242188 254.074219 54.335938 256.757812 C 57.664062 259.65625 61.320312 262.054688 65.304688 263.953125 C 69.28125 265.644531 69.605469 266.015625 77.726562 267.230469 C 83.667969 268.117188 97.824219 269.476562 103.511719 266.238281 C 105.886719 264.726562 107.625 262.675781 108.71875 260.082031 C 111.242188 254.539062 110.113281 247.917969 109.148438 242.007812 C 108.511719 238.972656 108.226562 235.902344 108.289062 232.800781 C 107.730469 214.828125 108.3125 221.277344 108.375 209.847656 C 108.609375 175.40625 116.347656 178.097656 79.058594 176.371094 C 76.699219 176.183594 74.390625 176.441406 72.132812 177.140625 C 61.648438 180.226562 47.683594 189.546875 42.335938 199.636719 C 38.65625 206.6875 36.488281 214.175781 35.828125 222.101562 C 35.558594 226.167969 36.183594 230.09375 37.707031 233.875 Z M 104.664062 210.90625 C 104.667969 210.808594 104.671875 210.71875 104.675781 210.632812 C 104.671875 210.769531 104.664062 210.710938 104.664062 210.90625 Z M 104.664062 210.90625 " fill-opacity="1" fill-rule="nonzero"/></g></g></g></g><g fill="#000000" fill-opacity="1"><g transform="translate(97.047592, 324.071029)"><g><path d="M 38.902344 -11.917969 C 38.671875 -12.148438 38.390625 -12.332031 38.066406 -12.332031 C 37.742188 -12.378906 37.417969 -12.289062 37.1875 -12.101562 C 37 -11.960938 19.148438 2.226562 4.265625 -3.894531 C 1.25 -5.148438 1.113281 -6.769531 1.207031 -7.652344 C 1.207031 -7.789062 1.25 -7.929688 1.390625 -8.019531 C 1.484375 -8.113281 1.667969 -8.113281 1.808594 -8.066406 C 4.820312 -7.882812 7.835938 -8.671875 10.433594 -10.292969 C 12.65625 -11.730469 13.027344 -13.308594 12.890625 -14.328125 C 12.796875 -15.996094 11.453125 -17.339844 9.738281 -17.386719 C 6.074219 -17.574219 -0.046875 -13.214844 -1.066406 -8.578125 C -1.484375 -6.863281 -1.4375 -3.617188 3.339844 -1.667969 C 6.257812 -0.464844 9.320312 0.09375 12.425781 0.09375 C 25.734375 0.09375 38.066406 -9.691406 38.714844 -10.199219 C 38.949219 -10.386719 39.132812 -10.710938 39.132812 -10.988281 C 39.179688 -11.3125 39.085938 -11.636719 38.902344 -11.917969 Z M 2.875 -10.894531 C 4.683594 -13.398438 7.695312 -15.070312 9.597656 -14.929688 C 10.109375 -14.929688 10.386719 -14.746094 10.480469 -14.050781 C 10.523438 -13.585938 10.015625 -12.9375 9.089844 -12.332031 C 7.1875 -11.082031 1.484375 -9.042969 2.875 -10.894531 Z M 2.875 -10.894531 "/></g></g></g><g fill="#000000" fill-opacity="1"><g transform="translate(134.278728, 324.071029)"><g><path d="M 40.523438 -11.546875 C 40.246094 -11.730469 39.96875 -11.871094 39.644531 -11.871094 C 39.320312 -11.824219 38.996094 -11.683594 38.808594 -11.453125 C 38.671875 -11.359375 28.46875 -0.464844 19.613281 -4.035156 C 17.710938 -5.054688 16.183594 -6.585938 15.117188 -8.484375 C 14.746094 -9.089844 14.28125 -9.691406 13.726562 -10.246094 C 13.121094 -10.988281 12.195312 -11.40625 11.222656 -11.453125 C 8.855469 -11.636719 5.980469 -10.0625 2.550781 -6.816406 C 2.457031 -6.722656 2.316406 -6.675781 2.179688 -6.769531 C 2.039062 -6.816406 1.949219 -7 1.992188 -7.140625 L 3.015625 -11.683594 C 3.199219 -12.332031 2.78125 -13.027344 2.132812 -13.167969 C 1.484375 -13.308594 0.835938 -12.890625 0.648438 -12.242188 L -1.667969 -2.085938 C -1.808594 -1.53125 -1.53125 -0.972656 -1.019531 -0.742188 C -0.511719 -0.464844 0.09375 -0.601562 0.464844 -1.019531 C 6.675781 -8.300781 9.828125 -8.996094 10.941406 -9.042969 C 12.054688 -9.089844 12.75 -7.652344 13.121094 -7.09375 C 14.421875 -4.820312 16.367188 -2.96875 18.6875 -1.808594 C 29.070312 2.410156 40.105469 -9.320312 40.570312 -9.828125 C 41.035156 -10.292969 40.988281 -11.082031 40.523438 -11.546875 Z M 40.523438 -11.546875 "/></g></g></g><g fill="#000000" fill-opacity="1"><g transform="translate(172.993546, 324.071029)"><g><path d="M 31.808594 -12.613281 C 31.34375 -13.074219 30.554688 -13.074219 30.09375 -12.566406 C 30 -12.472656 17.433594 0.183594 9.089844 -2.96875 C 5.378906 -4.40625 3.800781 -8.71875 3.199219 -12.984375 C 4.035156 -15.023438 5.425781 -18.40625 6.722656 -22.210938 C 6.863281 -22.671875 7 -22.71875 7.558594 -22.765625 C 13.816406 -23.230469 20.03125 -23.460938 23.695312 -23.460938 C 24.390625 -23.460938 24.898438 -24.019531 24.898438 -24.667969 C 24.898438 -25.363281 24.390625 -25.871094 23.695312 -25.871094 C 20.167969 -25.871094 14.375 -25.59375 8.4375 -25.269531 C 8.207031 -25.222656 7.789062 -25.363281 8.113281 -26.199219 C 10.339844 -32.550781 11.917969 -38.996094 10.941406 -40.941406 C 9.96875 -42.890625 8.671875 -42.9375 8.019531 -42.796875 C 4.589844 -42.148438 2.085938 -33.246094 0.972656 -25.964844 C 0.882812 -25.316406 0.554688 -24.761719 -0.046875 -24.714844 C -7.324219 -24.15625 -13.308594 -23.738281 -13.398438 -23.738281 C -14.09375 -23.695312 -14.605469 -23.136719 -14.558594 -22.441406 C -14.558594 -21.792969 -14.003906 -21.234375 -13.308594 -21.28125 L -13.214844 -21.28125 C -13.074219 -21.28125 -7.464844 -21.699219 -0.464844 -22.210938 C -0.230469 -22.257812 0 -22.210938 0.183594 -22.023438 C 0.371094 -21.886719 0.511719 -21.652344 0.511719 -21.421875 C -0.183594 -10.386719 2.597656 -2.828125 8.207031 -0.695312 C 9.414062 -0.277344 10.664062 -0.046875 11.960938 -0.046875 C 21.144531 -0.046875 31.34375 -10.386719 31.855469 -10.851562 C 32.085938 -11.082031 32.179688 -11.40625 32.179688 -11.730469 C 32.179688 -12.054688 32.039062 -12.378906 31.808594 -12.613281 Z M 3.429688 -26.058594 C 4.496094 -33.105469 6.628906 -38.671875 7.882812 -40.105469 C 8.019531 -40.199219 8.207031 -40.246094 8.390625 -40.199219 C 8.53125 -40.152344 8.671875 -40.0625 8.761719 -39.875 C 9.320312 -38.671875 7.742188 -32.78125 5.378906 -25.78125 C 5.285156 -25.363281 4.960938 -25.039062 4.496094 -24.992188 C 4.265625 -24.945312 4.035156 -24.945312 3.753906 -24.945312 C 3.292969 -24.945312 3.386719 -25.6875 3.429688 -26.011719 Z M 2.875 -18.777344 C 2.410156 -18.777344 2.597656 -22.023438 3.015625 -22.488281 C 3.386719 -22.71875 3.847656 -22.765625 4.21875 -22.535156 C 4.636719 -22.164062 3.386719 -18.777344 2.875 -18.777344 Z M 2.875 -18.777344 "/></g></g></g><g fill="#000000" fill-opacity="1"><g transform="translate(202.713535, 324.071029)"><g><path d="M 39.96875 -12.195312 C 39.738281 -12.425781 39.457031 -12.566406 39.132812 -12.566406 C 38.808594 -12.566406 38.484375 -12.425781 38.253906 -12.195312 C 30.230469 -4.359375 15.996094 -2.6875 12.9375 -4.496094 C 10.851562 -5.703125 11.082031 -7.140625 12.566406 -10.015625 C 13.261719 -11.40625 14.050781 -13.027344 12.703125 -14.003906 C 11.453125 -14.929688 10.246094 -14.328125 9.179688 -13.769531 C 7.652344 -12.890625 5.933594 -12.425781 4.125 -12.425781 C 3.710938 -12.425781 3.339844 -13.167969 3.429688 -13.445312 C 6.027344 -19.148438 4.867188 -20.214844 4.453125 -20.632812 C 3.753906 -21.328125 2.6875 -21.28125 1.390625 -20.496094 C -0.742188 -18.964844 -1.667969 -16.226562 -0.925781 -13.679688 C -0.742188 -12.984375 -0.417969 -12.332031 0.046875 -11.777344 C 0 -11.265625 0.230469 -10.804688 0.695312 -10.570312 C 0.972656 -10.433594 1.296875 -10.433594 1.621094 -10.523438 C 2.410156 -10.15625 3.292969 -9.96875 4.171875 -9.96875 C 6.074219 -9.921875 7.929688 -10.339844 9.597656 -11.265625 C 10.246094 -11.589844 10.480469 -11.3125 10.386719 -11.128906 C 9.273438 -8.949219 7.28125 -4.960938 11.730469 -2.363281 C 13.308594 -1.621094 15.070312 -1.296875 16.832031 -1.4375 C 23.324219 -1.4375 33.523438 -4.21875 39.921875 -10.480469 C 40.152344 -10.664062 40.292969 -10.988281 40.292969 -11.3125 C 40.339844 -11.636719 40.199219 -11.960938 39.96875 -12.195312 Z M 1.34375 -14.746094 C 1.066406 -16.089844 1.53125 -17.480469 2.597656 -18.359375 C 2.273438 -17.109375 1.855469 -15.902344 1.34375 -14.699219 Z M 1.34375 -14.746094 "/></g></g></g><g fill="#000000" fill-opacity="1"><g transform="translate(240.825611, 324.071029)"><g><path d="M 38.902344 -11.917969 C 38.671875 -12.148438 38.390625 -12.332031 38.066406 -12.332031 C 37.742188 -12.378906 37.417969 -12.289062 37.1875 -12.101562 C 37 -11.960938 19.148438 2.226562 4.265625 -3.894531 C 1.25 -5.148438 1.113281 -6.769531 1.207031 -7.652344 C 1.207031 -7.789062 1.25 -7.929688 1.390625 -8.019531 C 1.484375 -8.113281 1.667969 -8.113281 1.808594 -8.066406 C 4.820312 -7.882812 7.835938 -8.671875 10.433594 -10.292969 C 12.65625 -11.730469 13.027344 -13.308594 12.890625 -14.328125 C 12.796875 -15.996094 11.453125 -17.339844 9.738281 -17.386719 C 6.074219 -17.574219 -0.046875 -13.214844 -1.066406 -8.578125 C -1.484375 -6.863281 -1.4375 -3.617188 3.339844 -1.667969 C 6.257812 -0.464844 9.320312 0.09375 12.425781 0.09375 C 25.734375 0.09375 38.066406 -9.691406 38.714844 -10.199219 C 38.949219 -10.386719 39.132812 -10.710938 39.132812 -10.988281 C 39.179688 -11.3125 39.085938 -11.636719 38.902344 -11.917969 Z M 2.875 -10.894531 C 4.683594 -13.398438 7.695312 -15.070312 9.597656 -14.929688 C 10.109375 -14.929688 10.386719 -14.746094 10.480469 -14.050781 C 10.523438 -13.585938 10.015625 -12.9375 9.089844 -12.332031 C 7.1875 -11.082031 1.484375 -9.042969 2.875 -10.894531 Z M 2.875 -10.894531 "/></g></g></g><g fill="#000000" fill-opacity="1"><g transform="translate(151.21974, 282.018336)"><g><path d="M 2.375 -11.34375 L 0.234375 -11.34375 L 0.234375 -12.65625 L 6.21875 -12.65625 L 6.21875 -11.34375 L 4.140625 -11.34375 L 4.140625 0 L 2.375 0 Z M 2.375 -11.34375 "/></g></g></g><g fill="#000000" fill-opacity="1"><g transform="translate(163.255628, 282.018336)"><g><path d="M 2.984375 -12.65625 L 4.6875 -12.65625 L 7.390625 0 L 5.71875 0 L 5.140625 -3.1875 L 2.5625 -3.1875 L 1.953125 0 L 0.296875 0 Z M 4.90625 -4.453125 L 3.84375 -10.15625 L 2.796875 -4.453125 Z M 4.90625 -4.453125 "/></g></g></g><g fill="#000000" fill-opacity="1"><g transform="translate(176.526366, 282.018336)"><g><path d="M 0.984375 -12.65625 L 2.1875 -12.65625 L 5.78125 -4.25 L 5.78125 -12.65625 L 7.25 -12.65625 L 7.25 0 L 6.125 0 L 2.484375 -8.640625 L 2.484375 0 L 0.984375 0 Z M 0.984375 -12.65625 "/></g></g></g><g fill="#000000" fill-opacity="1"><g transform="translate(190.359825, 282.018336)"><g><path d="M 2.375 -11.34375 L 0.234375 -11.34375 L 0.234375 -12.65625 L 6.21875 -12.65625 L 6.21875 -11.34375 L 4.140625 -11.34375 L 4.140625 0 L 2.375 0 Z M 2.375 -11.34375 "/></g></g></g><g fill="#000000" fill-opacity="1"><g transform="translate(202.395712, 282.018336)"><g><path d="M 0.984375 -12.65625 L 3.53125 -12.65625 C 4.8125 -12.65625 5.75 -12.390625 6.34375 -11.859375 C 6.945312 -11.335938 7.25 -10.484375 7.25 -9.296875 C 7.25 -7.671875 6.726562 -6.6875 5.6875 -6.34375 L 7.484375 0 L 5.78125 0 L 4.125 -5.9375 L 2.75 -5.9375 L 2.75 0 L 0.984375 0 Z M 3.421875 -7.203125 C 4.179688 -7.203125 4.722656 -7.351562 5.046875 -7.65625 C 5.378906 -7.957031 5.546875 -8.503906 5.546875 -9.296875 C 5.546875 -9.816406 5.488281 -10.222656 5.375 -10.515625 C 5.257812 -10.816406 5.054688 -11.035156 4.765625 -11.171875 C 4.472656 -11.316406 4.0625 -11.390625 3.53125 -11.390625 L 2.75 -11.390625 L 2.75 -7.203125 Z M 3.421875 -7.203125 "/></g></g></g><g fill="#000000" fill-opacity="1"><g transform="translate(216.088483, 282.018336)"><g><path d="M 2.984375 -12.65625 L 4.6875 -12.65625 L 7.390625 0 L 5.71875 0 L 5.140625 -3.1875 L 2.5625 -3.1875 L 1.953125 0 L 0.296875 0 Z M 4.90625 -4.453125 L 3.84375 -10.15625 L 2.796875 -4.453125 Z M 4.90625 -4.453125 "/></g></g></g><g fill="#000000" fill-opacity="1"><g transform="translate(127.216077, 340.21634)"><g><path d="M 3.96875 0.140625 C 2.90625 0.140625 2.09375 -0.1875 1.53125 -0.84375 C 0.976562 -1.5 0.671875 -2.398438 0.609375 -3.546875 L 2.171875 -3.96875 C 2.222656 -3.15625 2.378906 -2.5 2.640625 -2 C 2.910156 -1.5 3.351562 -1.25 3.96875 -1.25 C 4.425781 -1.25 4.769531 -1.375 5 -1.625 C 5.238281 -1.882812 5.359375 -2.253906 5.359375 -2.734375 C 5.359375 -3.253906 5.25 -3.6875 5.03125 -4.03125 C 4.8125 -4.375 4.460938 -4.753906 3.984375 -5.171875 L 1.859375 -7.046875 C 1.429688 -7.421875 1.117188 -7.820312 0.921875 -8.25 C 0.734375 -8.6875 0.640625 -9.21875 0.640625 -9.84375 C 0.640625 -10.769531 0.90625 -11.488281 1.4375 -12 C 1.96875 -12.507812 2.691406 -12.765625 3.609375 -12.765625 C 4.609375 -12.765625 5.363281 -12.5 5.875 -11.96875 C 6.382812 -11.4375 6.691406 -10.613281 6.796875 -9.5 L 5.296875 -9.09375 C 5.242188 -9.832031 5.097656 -10.398438 4.859375 -10.796875 C 4.628906 -11.203125 4.210938 -11.40625 3.609375 -11.40625 C 3.160156 -11.40625 2.816406 -11.285156 2.578125 -11.046875 C 2.335938 -10.816406 2.21875 -10.472656 2.21875 -10.015625 C 2.21875 -9.640625 2.28125 -9.320312 2.40625 -9.0625 C 2.53125 -8.8125 2.742188 -8.554688 3.046875 -8.296875 L 5.1875 -6.421875 C 5.738281 -5.929688 6.175781 -5.398438 6.5 -4.828125 C 6.832031 -4.253906 7 -3.601562 7 -2.875 C 7 -1.945312 6.71875 -1.210938 6.15625 -0.671875 C 5.59375 -0.128906 4.863281 0.140625 3.96875 0.140625 Z M 3.96875 0.140625 "/></g></g></g><g fill="#000000" fill-opacity="1"><g transform="translate(140.189824, 340.21634)"><g><path d="M 4.15625 0.140625 C 2.90625 0.140625 2.023438 -0.226562 1.515625 -0.96875 C 1.003906 -1.71875 0.75 -2.75 0.75 -4.0625 L 0.75 -8.53125 C 0.75 -9.914062 1 -10.96875 1.5 -11.6875 C 2 -12.40625 2.882812 -12.765625 4.15625 -12.765625 C 5.289062 -12.765625 6.101562 -12.457031 6.59375 -11.84375 C 7.09375 -11.226562 7.34375 -10.320312 7.34375 -9.125 L 7.34375 -8.125 L 5.671875 -8.125 L 5.671875 -9.015625 C 5.671875 -9.597656 5.644531 -10.046875 5.59375 -10.359375 C 5.539062 -10.671875 5.40625 -10.921875 5.1875 -11.109375 C 4.976562 -11.296875 4.640625 -11.390625 4.171875 -11.390625 C 3.691406 -11.390625 3.332031 -11.285156 3.09375 -11.078125 C 2.863281 -10.878906 2.710938 -10.597656 2.640625 -10.234375 C 2.566406 -9.878906 2.53125 -9.398438 2.53125 -8.796875 L 2.53125 -3.78125 C 2.53125 -3.132812 2.582031 -2.628906 2.6875 -2.265625 C 2.789062 -1.898438 2.957031 -1.640625 3.1875 -1.484375 C 3.425781 -1.328125 3.753906 -1.25 4.171875 -1.25 C 4.617188 -1.25 4.953125 -1.347656 5.171875 -1.546875 C 5.390625 -1.742188 5.523438 -2.015625 5.578125 -2.359375 C 5.640625 -2.703125 5.671875 -3.171875 5.671875 -3.765625 L 5.671875 -4.703125 L 7.34375 -4.703125 L 7.34375 -3.765625 C 7.34375 -2.503906 7.101562 -1.535156 6.625 -0.859375 C 6.15625 -0.191406 5.332031 0.140625 4.15625 0.140625 Z M 4.15625 0.140625 "/></g></g></g><g fill="#000000" fill-opacity="1"><g transform="translate(153.820071, 340.21634)"><g><path d="M 0.984375 -12.65625 L 5.890625 -12.65625 L 5.890625 -11.34375 L 2.75 -11.34375 L 2.75 -7.15625 L 5.296875 -7.15625 L 5.296875 -5.90625 L 2.75 -5.90625 L 2.75 -1.265625 L 5.921875 -1.265625 L 5.921875 0 L 0.984375 0 Z M 0.984375 -12.65625 "/></g></g></g><g fill="#000000" fill-opacity="1"><g transform="translate(165.762174, 340.21634)"><g><path d="M 0.984375 -12.65625 L 4.125 -12.65625 C 5.21875 -12.65625 6.007812 -12.359375 6.5 -11.765625 C 7 -11.171875 7.25 -10.300781 7.25 -9.15625 C 7.25 -8.125 6.984375 -7.320312 6.453125 -6.75 C 5.921875 -6.175781 5.148438 -5.890625 4.140625 -5.890625 L 2.75 -5.890625 L 2.75 0 L 0.984375 0 Z M 3.5625 -7.15625 C 4.082031 -7.15625 4.484375 -7.210938 4.765625 -7.328125 C 5.054688 -7.441406 5.265625 -7.640625 5.390625 -7.921875 C 5.515625 -8.203125 5.578125 -8.609375 5.578125 -9.140625 C 5.578125 -9.785156 5.53125 -10.257812 5.4375 -10.5625 C 5.34375 -10.863281 5.15625 -11.078125 4.875 -11.203125 C 4.601562 -11.328125 4.171875 -11.390625 3.578125 -11.390625 L 2.75 -11.390625 L 2.75 -7.15625 Z M 3.5625 -7.15625 "/></g></g></g><g fill="#000000" fill-opacity="1"><g transform="translate(178.845337, 340.21634)"><g><path d="M 2.375 -11.34375 L 0.234375 -11.34375 L 0.234375 -12.65625 L 6.21875 -12.65625 L 6.21875 -11.34375 L 4.140625 -11.34375 L 4.140625 0 L 2.375 0 Z M 2.375 -11.34375 "/></g></g></g><g fill="#000000" fill-opacity="1"><g transform="translate(190.881223, 340.21634)"><g><path d="M 1.078125 -12.65625 L 2.8125 -12.65625 L 2.8125 0 L 1.078125 0 Z M 1.078125 -12.65625 "/></g></g></g><g fill="#000000" fill-opacity="1"><g transform="translate(200.337987, 340.21634)"><g><path d="M 6.796875 2.5625 C 6.160156 2.25 5.398438 1.4375 4.515625 0.125 C 4.453125 0.132812 4.351562 0.140625 4.21875 0.140625 C 2.976562 0.140625 2.085938 -0.207031 1.546875 -0.90625 C 1.015625 -1.613281 0.75 -2.632812 0.75 -3.96875 L 0.75 -8.765625 C 0.75 -10.078125 1.019531 -11.070312 1.5625 -11.75 C 2.101562 -12.425781 2.988281 -12.765625 4.21875 -12.765625 C 5.445312 -12.765625 6.332031 -12.421875 6.875 -11.734375 C 7.414062 -11.054688 7.6875 -10.066406 7.6875 -8.765625 L 7.6875 -3.953125 C 7.6875 -1.941406 7.066406 -0.675781 5.828125 -0.15625 C 6.347656 0.519531 6.765625 0.960938 7.078125 1.171875 Z M 4.21875 -1.25 C 4.882812 -1.25 5.332031 -1.441406 5.5625 -1.828125 C 5.789062 -2.210938 5.90625 -2.796875 5.90625 -3.578125 L 5.90625 -9.125 C 5.90625 -9.894531 5.789062 -10.460938 5.5625 -10.828125 C 5.332031 -11.203125 4.882812 -11.390625 4.21875 -11.390625 C 3.550781 -11.390625 3.101562 -11.203125 2.875 -10.828125 C 2.644531 -10.460938 2.53125 -9.894531 2.53125 -9.125 L 2.53125 -3.578125 C 2.53125 -2.796875 2.644531 -2.210938 2.875 -1.828125 C 3.101562 -1.441406 3.550781 -1.25 4.21875 -1.25 Z M 4.21875 -1.25 "/></g></g></g><g fill="#000000" fill-opacity="1"><g transform="translate(214.374646, 340.21634)"><g><path d="M 4.25 0.140625 C 3.363281 0.140625 2.671875 -0.0351562 2.171875 -0.390625 C 1.679688 -0.742188 1.34375 -1.238281 1.15625 -1.875 C 0.96875 -2.507812 0.875 -3.304688 0.875 -4.265625 L 0.875 -12.65625 L 2.5625 -12.65625 L 2.5625 -4.1875 C 2.5625 -3.226562 2.671875 -2.5 2.890625 -2 C 3.117188 -1.5 3.570312 -1.25 4.25 -1.25 C 4.925781 -1.25 5.375 -1.5 5.59375 -2 C 5.820312 -2.5 5.9375 -3.226562 5.9375 -4.1875 L 5.9375 -12.65625 L 7.609375 -12.65625 L 7.609375 -4.265625 C 7.609375 -3.304688 7.515625 -2.507812 7.328125 -1.875 C 7.140625 -1.238281 6.800781 -0.742188 6.3125 -0.390625 C 5.820312 -0.0351562 5.132812 0.140625 4.25 0.140625 Z M 4.25 0.140625 "/></g></g></g><g fill="#000000" fill-opacity="1"><g transform="translate(228.442565, 340.21634)"><g><path d="M 0.984375 -12.65625 L 5.890625 -12.65625 L 5.890625 -11.34375 L 2.75 -11.34375 L 2.75 -7.15625 L 5.296875 -7.15625 L 5.296875 -5.90625 L 2.75 -5.90625 L 2.75 -1.265625 L 5.921875 -1.265625 L 5.921875 0 L 0.984375 0 Z M 0.984375 -12.65625 "/></g></g></g><g fill="#000000" fill-opacity="1"><g transform="translate(240.384665, 340.21634)"><g><path d="M 3.96875 0.140625 C 2.90625 0.140625 2.09375 -0.1875 1.53125 -0.84375 C 0.976562 -1.5 0.671875 -2.398438 0.609375 -3.546875 L 2.171875 -3.96875 C 2.222656 -3.15625 2.378906 -2.5 2.640625 -2 C 2.910156 -1.5 3.351562 -1.25 3.96875 -1.25 C 4.425781 -1.25 4.769531 -1.375 5 -1.625 C 5.238281 -1.882812 5.359375 -2.253906 5.359375 -2.734375 C 5.359375 -3.253906 5.25 -3.6875 5.03125 -4.03125 C 4.8125 -4.375 4.460938 -4.753906 3.984375 -5.171875 L 1.859375 -7.046875 C 1.429688 -7.421875 1.117188 -7.820312 0.921875 -8.25 C 0.734375 -8.6875 0.640625 -9.21875 0.640625 -9.84375 C 0.640625 -10.769531 0.90625 -11.488281 1.4375 -12 C 1.96875 -12.507812 2.691406 -12.765625 3.609375 -12.765625 C 4.609375 -12.765625 5.363281 -12.5 5.875 -11.96875 C 6.382812 -11.4375 6.691406 -10.613281 6.796875 -9.5 L 5.296875 -9.09375 C 5.242188 -9.832031 5.097656 -10.398438 4.859375 -10.796875 C 4.628906 -11.203125 4.210938 -11.40625 3.609375 -11.40625 C 3.160156 -11.40625 2.816406 -11.285156 2.578125 -11.046875 C 2.335938 -10.816406 2.21875 -10.472656 2.21875 -10.015625 C 2.21875 -9.640625 2.28125 -9.320312 2.40625 -9.0625 C 2.53125 -8.8125 2.742188 -8.554688 3.046875 -8.296875 L 5.1875 -6.421875 C 5.738281 -5.929688 6.175781 -5.398438 6.5 -4.828125 C 6.832031 -4.253906 7 -3.601562 7 -2.875 C 7 -1.945312 6.71875 -1.210938 6.15625 -0.671875 C 5.59375 -0.128906 4.863281 0.140625 3.96875 0.140625 Z M 3.96875 0.140625 "/></g></g></g></svg>